<svg width="25" height="25" viewBox="0 0 25 25" fill="none" xmlns="http://www.w3.org/2000/svg">
<path d="M16.69 2.5H8.31C4.67 2.5 2.5 4.67 2.5 8.31V16.68C2.5 20.33 4.67 22.5 8.31 22.5H16.68C20.32 22.5 22.49 20.33 22.49 16.69V8.31C22.5 4.67 20.33 2.5 16.69 2.5ZM18.19 14.55C18.15 14.64 18.1 14.72 18.03 14.79L15.08 17.74C14.93 17.89 14.74 17.96 14.55 17.96C14.36 17.96 14.17 17.89 14.02 17.74C13.73 17.45 13.73 16.97 14.02 16.68L15.69 15.01H7.5C7.09 15.01 6.75 14.67 6.75 14.26C6.75 13.85 7.09 13.51 7.5 13.51H17.5C17.6 13.51 17.69 13.53 17.79 13.57C17.97 13.65 18.12 13.79 18.2 13.98C18.27 14.16 18.27 14.36 18.19 14.55ZM17.5 11.49H7.5C7.4 11.49 7.31 11.47 7.21 11.43C7.03 11.35 6.88 11.21 6.8 11.02C6.72 10.84 6.72 10.63 6.8 10.45C6.85 10.36 6.9 10.28 6.97 10.21L9.92 7.26C10.21 6.97 10.69 6.97 10.98 7.26C11.27 7.55 11.27 8.03 10.98 8.32L9.31 9.99H17.5C17.91 9.99 18.25 10.33 18.25 10.74C18.25 11.15 17.91 11.49 17.5 11.49Z" fill="white"/>
</svg>
