<svg width="130" height="130" viewBox="0 0 130 130" fill="none" xmlns="http://www.w3.org/2000/svg">
<path d="M127.5 65C127.5 99.5178 99.5178 127.5 65 127.5C30.4822 127.5 2.5 99.5178 2.5 65C2.5 30.4822 30.4822 2.5 65 2.5C99.5178 2.5 127.5 30.4822 127.5 65Z" fill="#D9D9D9" stroke="#FF521B" stroke-width="5"/>
<circle cx="65" cy="65" r="60" fill="white"/>
<path d="M87.6566 55.7812C87.8597 55.7812 87.8597 55.7812 87.6566 55.7812L94.9691 37.0938C95.1722 36.6875 94.9691 36.2812 94.766 36.0781C94.5628 35.875 93.9535 35.6719 93.7503 35.875L75.0628 42.9844C74.8597 42.9844 74.6566 42.9844 74.6566 43.1875L61.6566 56.1875C60.2347 55.375 59.016 54.7656 57.7972 54.1562C57.7972 53.5469 57.7972 52.9375 57.7972 52.125V51.7188C57.5941 45.2188 53.3285 40.3437 47.0316 39.5312C46.2191 39.5312 45.4066 39.5312 44.5941 39.3281C43.3753 39.3281 42.3597 39.3281 41.3441 39.125C38.9066 38.5156 35.8597 36.0781 36.4691 33.2344V33.0312C36.4691 32.625 36.0628 32.2188 35.6566 32.0156C35.0472 32.0156 34.641 32.4219 34.4378 32.8281C33.6253 37.5 33.8285 42.9844 35.4535 47.4531C37.891 54.5625 43.7816 59.2344 51.9066 60.0469C51.9066 60.0469 51.9066 60.0469 52.1097 60.0469C52.3128 60.0469 52.516 60.0469 52.7191 59.8438C53.1253 60.8594 53.7347 62.0781 54.5472 63.2969L44.7972 73.0469L40.1253 77.7188L37.2816 80.5625C35.2503 82.5938 35.2503 85.8438 37.2816 87.6719L42.9691 93.3594C43.9847 94.375 45.2035 94.7812 46.6253 94.7812H46.8285C48.0472 94.7812 49.266 94.1719 50.2816 93.3594L65.9222 77.5156C66.3285 77.9219 66.7347 78.3281 67.141 78.7344C72.2191 83.8125 77.7035 88.2812 82.1722 91.125C85.4222 93.1562 88.0628 94.375 89.891 94.375C90.7035 94.375 91.516 94.1719 92.1253 93.5625C95.7816 89.9062 85.4222 76.7031 77.2972 68.5781C76.891 68.1719 76.4847 67.7656 76.0785 67.3594L87.6566 55.7812ZM92.3285 38.5156L90.9066 41.7656C90.0941 41.3594 89.2816 40.5469 88.8753 39.7344L92.3285 38.5156ZM74.8597 51.5156C75.4691 50.9062 76.0785 50.7031 76.891 50.7031H78.9222C79.5316 50.7031 79.9378 51.1094 79.9378 51.7188V53.75C79.9378 54.5625 79.5316 55.375 79.1253 55.9844L71.6097 63.5C69.9847 62.0781 68.3597 60.8594 66.9378 59.6406L74.8597 51.5156ZM74.2503 47.8594C74.2503 48.6719 74.0472 49.4844 73.4378 49.8906L65.1097 58.2188C64.5003 57.8125 63.891 57.4062 63.4847 57L74.2503 46.2344V47.8594ZM51.7035 58.0156C44.5941 57 39.516 52.9375 37.2816 46.8438C36.4691 44 36.0628 40.9531 36.0628 38.1094C37.2816 39.5312 39.1097 40.75 40.9378 41.1562C42.1566 41.3594 43.5785 41.3594 44.7972 41.3594C45.6097 41.3594 46.4222 41.3594 47.0316 41.3594C52.1097 41.9688 55.766 46.0312 55.9691 51.5156V51.9219C55.9691 52.9375 55.9691 53.5469 55.9691 53.5469L51.7035 58.0156ZM56.7816 55.7812C58.2035 56.3906 59.6253 57 61.2503 58.2188C62.266 58.8281 63.2816 59.4375 64.5003 60.4531C64.5003 60.4531 64.5003 60.4531 64.7035 60.4531C65.7191 61.2656 66.7347 62.0781 67.9535 62.8906C66.7347 65.7344 64.2972 68.1719 61.4535 69.3906C60.641 68.375 59.6253 67.1562 59.016 66.1406C59.016 66.1406 59.016 66.1406 59.016 65.9375C58.2035 64.7188 57.391 63.7031 56.7816 62.6875C55.766 61.0625 54.9535 59.4375 54.3441 58.2188L56.7816 55.7812ZM58.0003 68.375C59.2191 69.7969 60.4378 71.4219 61.8597 73.0469L53.9378 80.9688L49.6722 76.7031L58.0003 68.375ZM55.5628 65.125C55.9691 65.7344 56.3753 66.1406 56.7816 66.75L48.2503 75.2812L46.8285 73.8594L55.5628 65.125ZM48.6566 91.9375C47.4378 93.1562 45.6097 93.1562 44.391 91.9375L38.7035 86.25C38.5003 85.8438 38.0941 85.6406 38.0941 85.2344C37.891 84.8281 37.891 84.625 37.891 84.2188C37.891 83.8125 37.891 83.4062 38.0941 83.2031C38.2972 82.7969 38.5003 82.5938 38.7035 82.1875L41.3441 79.5469L42.1566 78.7344L52.1097 88.6875L48.6566 91.9375ZM53.7347 87.0625L43.5785 76.9062L45.2035 75.2812L47.2347 77.3125L52.9222 83L54.9535 85.0312L53.7347 87.0625ZM55.3597 82.3906L63.0785 74.6719C63.4847 75.0781 63.891 75.6875 64.5003 76.0938L56.7816 83.8125L55.3597 82.3906ZM90.5003 92.1406C90.0941 92.5469 88.0628 92.5469 83.1878 89.5C78.7191 86.6562 73.641 82.3906 68.5628 77.3125C67.9535 76.7031 67.3441 76.0938 66.7347 75.4844C65.7191 74.4688 64.9066 73.4531 64.0941 72.4375C63.6878 72.0312 63.2816 71.625 62.8753 71.0156C65.7191 69.5938 68.1566 67.1562 69.5785 64.3125C69.9847 64.7188 70.391 64.9219 70.7972 65.3281C71.8128 66.1406 72.8285 67.1562 73.8441 67.9688C74.4535 68.5781 75.0628 69.1875 75.6722 69.7969C87.8597 82.1875 91.7191 90.9219 90.5003 92.1406ZM74.6566 66.1406C74.2503 65.7344 73.641 65.125 73.2347 64.7188L80.7503 57.2031C80.7503 57.2031 80.7503 57.2031 80.9535 57C81.5628 56.3906 82.3753 56.1875 83.1878 56.1875H84.8128L74.6566 66.1406ZM82.7816 54.3594C82.5785 54.3594 82.3753 54.3594 81.9691 54.3594C81.9691 54.1562 81.9691 53.9531 81.9691 53.5469V51.5156C81.9691 49.8906 80.5472 48.4688 78.9222 48.4688H76.891C76.6878 48.4688 76.4847 48.4688 76.0785 48.4688C76.0785 48.2656 76.0785 48.0625 76.0785 47.6562V44.6094L86.641 40.5469C87.2503 41.9688 88.4691 43.1875 89.891 43.7969L85.8285 54.3594H82.7816Z" fill="#171717"/>
<path d="M86.0047 40.1109L85.4898 40.3521L85.6203 40.9055L85.7603 41.4991C86.2183 43.441 87.8318 44.8958 89.8105 45.1509L89.9001 44.4567L90.5245 44.7731L93.061 39.7673C93.0682 39.7529 93.0755 39.7387 93.0827 39.7244C93.2818 39.3315 93.463 38.9742 93.5627 38.689C93.6466 38.4489 93.809 37.8971 93.3941 37.4691C92.9793 37.0412 92.4226 37.1864 92.1801 37.2629C91.8919 37.3537 91.5292 37.5236 91.1303 37.7105C91.1158 37.7173 91.1013 37.724 91.0868 37.7309L86.0047 40.1109Z" fill="#FF521B" stroke="#171717" stroke-width="1.4"/>
<path d="M62.4247 70.4964C60.3924 70.3043 55.6917 62.5363 53.5353 58.5651C53.5115 58.5213 53.4996 58.4737 53.5014 58.4238C53.5716 56.5605 56.1882 54.9587 56.8494 54.5831C56.9421 54.5305 57.0531 54.5331 57.1431 54.59C60.3138 56.5968 66.27 61.1606 68.8338 63.3568C68.934 63.4427 68.9635 63.5831 68.9076 63.7027C67.0117 67.7609 63.1152 70.1415 62.5651 70.4626C62.5211 70.4883 62.4755 70.5012 62.4247 70.4964Z" fill="#FF521B" stroke="#171717" stroke-width="1.5"/>
</svg>
