<svg width="50" height="50" viewBox="0 0 50 50" fill="none" xmlns="http://www.w3.org/2000/svg">
<path d="M0 12C0 6.34315 0 3.51472 1.75736 1.75736C3.51472 0 6.34315 0 12 0H38C43.6569 0 46.4853 0 48.2426 1.75736C50 3.51472 50 6.34315 50 12V38C50 43.6569 50 46.4853 48.2426 48.2426C46.4853 50 43.6569 50 38 50H12C6.34315 50 3.51472 50 1.75736 48.2426C0 46.4853 0 43.6569 0 38V12Z" fill="white"/>
<path d="M35.7331 17.3682C32.2408 14.7552 28.8952 14.8284 28.8952 14.8284L28.5532 15.219C32.7049 16.4646 34.6342 18.2961 34.6342 18.2961C28.6945 15.0258 21.1285 15.0492 14.9503 18.2961C14.9503 18.2961 16.9528 16.3668 21.3487 15.1212L21.1045 14.8281C21.1045 14.8281 17.7832 14.7549 14.2666 17.3679C14.2666 17.3679 10.75 23.6931 10.75 31.4835C10.75 31.4835 12.8014 35.0001 18.1987 35.1711C18.1987 35.1711 19.1023 34.0965 19.8349 33.1686C16.7332 32.2407 15.5611 30.3114 15.5611 30.3114C17.5096 31.5306 19.48 32.2938 21.9352 32.778C25.93 33.6003 30.8989 32.7549 34.6099 30.3114C34.6099 30.3114 33.3889 32.2896 30.1897 33.1932C30.9223 34.0968 31.8016 35.1468 31.8016 35.1468C37.1983 34.9761 39.2497 31.4595 39.2497 31.4838C39.2497 23.6934 35.7331 17.3682 35.7331 17.3682ZM20.4451 29.2128C19.0774 29.2128 17.9542 28.0161 17.9542 26.5263C18.0541 22.9587 22.8613 22.9698 22.9363 26.5263C22.936 28.0161 21.8371 29.2128 20.4451 29.2128ZM29.359 29.2128C27.9913 29.2128 26.8681 28.0161 26.8681 26.5263C26.9779 22.9656 31.7251 22.9641 31.8502 26.5263C31.8499 28.0161 30.751 29.2128 29.359 29.2128Z" fill="#171717"/>
</svg>
