<svg width="32" height="32" viewBox="0 0 32 32" fill="none" xmlns="http://www.w3.org/2000/svg">
<g clip-path="url(#clip0_1_1868)">
<path d="M15.9956 0L15.7822 0.729333V21.888L15.9956 22.1027L25.8182 16.2973L15.9956 0Z" fill="#343434"/>
<path d="M15.9975 0L6.1748 16.2973L15.9975 22.1027V11.832V0Z" fill="#8C8C8C"/>
<path d="M15.996 23.9628L15.876 24.1095V31.6468L15.996 32.0002L25.8253 18.1602L15.996 23.9628Z" fill="#3C3C3B"/>
<path d="M15.9975 32.0002V23.9628L6.1748 18.1602L15.9975 32.0002Z" fill="#8C8C8C"/>
<path d="M15.9961 22.1027L25.8188 16.2974L15.9961 11.832V22.1027Z" fill="#141414"/>
<path d="M6.1748 16.2974L15.9961 22.1027V11.832L6.1748 16.2974Z" fill="#393939"/>
<path d="M15.9974 0V11.832L16.0001 11.8347V0.00533333L15.9974 0ZM15.9961 0V0.00133333V0Z" fill="#2D2D2D"/>
<path d="M6.1748 16.2973L15.9975 22.1027V22.1013L6.1748 16.2973ZM15.9975 0L15.9961 0.00133333L6.1748 16.2973L15.9961 11.8333V0H15.9975Z" fill="#7A7A7A"/>
<path d="M15.9961 31.9986V32V31.9986ZM16.0001 23.96L15.9961 23.9626V31.9986L16.0001 31.9946V23.96Z" fill="#343433"/>
<path d="M6.1748 18.1602L15.9961 31.9988L15.9975 32.0002V31.9988V23.9628L6.1748 18.1602Z" fill="#7A7A7A"/>
<path d="M15.9961 11.832V22.1027H15.9974L16.0001 22.1V11.8347L15.9974 11.8334L15.9961 11.832Z" fill="#111111"/>
<path d="M15.9961 11.832L6.1748 16.2974L15.9961 22.1027V11.832Z" fill="#323232"/>
</g>
<defs>
<clipPath id="clip0_1_1868">
<rect width="32" height="32" fill="white"/>
</clipPath>
</defs>
</svg>
