<svg width="30" height="37" viewBox="0 0 30 37" fill="none" xmlns="http://www.w3.org/2000/svg">
<path d="M4.82654 33.5512C5.318 33.9444 5.80946 34.2393 6.30092 34.5342C8.75823 35.812 11.4121 36.4017 14.066 36.5C14.2626 36.5 14.5575 36.5 14.7541 36.5C15.0489 36.5 15.3438 36.5 15.6387 36.4017C19.0789 36.2051 22.3226 35.1239 24.7799 33.0598C27.8269 30.6025 29.4979 26.8674 29.5962 22.5425C29.5962 21.1664 29.4979 19.7903 29.203 18.4142C29.203 18.2176 29.1047 18.0211 29.0064 17.7262C28.9081 17.5296 28.8098 17.2347 28.8098 17.1364C28.9081 16.645 28.515 16.1535 28.0235 16.0552C28.0235 16.0552 27.9252 16.0552 27.8269 16.0552C27.3355 16.0552 26.9423 16.3501 26.9423 16.8416C26.3525 20.7732 24.7799 22.2476 23.6004 22.8374C26.2542 4.75161 10.2326 0.525048 10.036 0.525048C9.64286 0.426756 9.1514 0.62334 8.95481 1.01651C8.75823 1.40968 8.85652 1.90114 9.24969 2.19602C11.019 3.6704 12.0019 5.73454 12.0019 8.19184C12.0019 10.4526 11.3138 12.7133 10.5275 14.4825C9.74115 10.7474 5.61288 7.99526 5.4163 7.89696C5.12142 7.70038 4.72825 7.70038 4.43337 7.89696C4.1385 8.09355 3.94191 8.38842 3.94191 8.78159C4.1385 11.4355 3.25387 13.5979 1.97607 16.645C1.48461 17.4313 1.09144 18.4142 0.698269 19.4954C-1.07099 24.8032 0.599977 30.2093 4.82654 33.5512ZM9.1514 28.9315C9.34798 28.44 9.54457 28.0469 9.64286 27.6537C9.64286 27.6537 9.64286 27.5554 9.74115 27.5554C10.1343 26.6708 10.4292 25.8844 10.6258 25.0981C11.019 25.6879 11.3138 26.2776 11.019 26.9657C10.5275 28.0469 10.9207 28.6366 11.3138 28.8332C12.2967 29.3247 12.9848 28.3417 13.1814 28.0469C13.9677 26.8674 15.2455 24.2135 14.8523 21.6579C16.7199 23.034 18.5875 25.6879 17.6045 30.5042C17.5062 30.7991 17.6045 31.1922 17.8011 31.3888C17.9977 31.6837 18.2926 31.782 18.5875 31.782C18.6857 31.782 19.5704 31.782 20.455 30.9956C20.2584 31.9786 19.767 33.0598 18.6857 33.9444C17.7028 34.7307 16.425 35.2222 15.0489 35.3205C14.6558 35.3205 14.2626 35.3205 13.8694 35.3205C12.8865 35.2222 11.9036 34.9273 10.9207 34.5342C10.8224 34.4359 10.6258 34.3376 10.4292 34.2393C9.05311 32.9615 8.46335 30.9956 9.1514 28.9315Z" fill="#FF521B"/>
</svg>
