<svg width="180" height="180" viewBox="0 0 180 180" fill="none" xmlns="http://www.w3.org/2000/svg">
<path d="M88 1.1547C88.9761 0.591168 89.4641 0.309401 90 0.309401C90.5359 0.309401 91.0239 0.591168 92 1.1547L165.942 43.8453C166.918 44.4088 167.406 44.6906 167.674 45.1547C167.942 45.6188 167.942 46.1823 167.942 47.3094V132.691C167.942 133.818 167.942 134.381 167.674 134.845C167.406 135.309 166.918 135.591 165.942 136.155L92 178.845C91.0239 179.409 90.5359 179.691 90 179.691C89.4641 179.691 88.9761 179.409 88 178.845L14.0577 136.155C13.0816 135.591 12.5936 135.309 12.3257 134.845C12.0577 134.381 12.0577 133.818 12.0577 132.691V47.3094C12.0577 46.1823 12.0577 45.6188 12.3257 45.1547C12.5936 44.6906 13.0816 44.4088 14.0577 43.8453L88 1.1547Z" fill="#171717"/>
<path d="M98.3355 96.8C95.4689 96.5333 92.5022 96.1667 89.4355 95.7C86.4355 95.1667 83.6022 94.5333 80.9355 93.8C80.8022 93.7333 80.5022 93.6333 80.0355 93.5C79.5689 93.3667 79.3355 93.2333 79.3355 93.1C79.3355 92.9 79.5689 92.7667 80.0355 92.7C80.5022 92.6333 80.8022 92.6 80.9355 92.6C82.2689 92.4667 83.9689 92.4 86.0355 92.4C88.1022 92.3333 89.8022 92.4 91.1355 92.6C92.4022 92.8 93.8689 92.9667 95.5355 93.1C97.2689 93.2333 99.0022 93.2667 100.736 93.2C102.469 93.1333 104.136 92.9667 105.736 92.7C107.402 92.4333 108.836 92.0333 110.036 91.5C110.569 91.3 111.169 90.9 111.836 90.3C112.502 89.7 113.002 89.1 113.336 88.5C111.202 89.9 108.836 90.7667 106.236 91.1C103.636 91.4333 100.902 91.5 98.0355 91.3C95.2355 91.1 92.3689 90.8 89.4355 90.4C86.5689 90 83.7355 89.7333 80.9355 89.6C79.1355 89.5333 77.2689 89.6 75.3355 89.8C73.4689 90 71.6355 90.4 69.8355 91C68.1022 91.6 66.5022 92.4 65.0355 93.4C63.5689 94.4 62.3689 95.6333 61.4355 97.1C61.3022 97.4333 61.2689 97.5 61.3355 97.3C61.3355 97.0333 61.3355 96.8333 61.3355 96.7C61.8689 94.0333 63.1022 92.0333 65.0355 90.7C67.0355 89.3 69.2022 88.2333 71.5355 87.5C72.4022 83.9 73.4022 80.3333 74.5355 76.8C75.6689 73.2667 76.7022 69.8333 77.6355 66.5C78.6355 63.1667 79.4355 59.9333 80.0355 56.8C80.7022 53.6667 81.0022 50.6333 80.9355 47.7C81.0022 47.5667 81.0022 47.4333 80.9355 47.3C80.9355 47.1667 81.0022 47.1 81.1355 47.1C81.2689 47.0333 81.3355 47.1333 81.3355 47.4C81.4022 47.6 81.4355 47.7333 81.4355 47.8C82.3022 50.7333 82.6355 53.8 82.4355 57C82.2355 60.1333 81.7355 63.3333 80.9355 66.6C80.2022 69.8667 79.2689 73.2 78.1355 76.6C77.0689 79.9333 76.0689 83.3 75.1355 86.7L77.7355 86.4C78.0689 84.8667 78.4022 83.3 78.7355 81.7C79.1355 80.1 79.5355 78.7 79.9355 77.5C80.0689 77.1 80.2689 76.3 80.5355 75.1C80.8689 73.8333 81.2022 72.3333 81.5355 70.6C81.8689 68.8667 82.2022 67 82.5355 65C82.9355 63 83.2355 61.0667 83.4355 59.2C83.7022 57.3333 83.8355 55.6333 83.8355 54.1C83.9022 52.5667 83.8355 51.3667 83.6355 50.5C83.6355 49.9 83.6689 49.6 83.7355 49.6C83.8689 49.6 84.0022 49.7 84.1355 49.9C84.2689 50.0333 84.3689 50.1667 84.4355 50.3C85.1689 51.4333 85.7022 52.8 86.0355 54.4C86.4355 56 86.6689 57.7 86.7355 59.5C86.8689 61.2333 86.8355 62.9667 86.6355 64.7C86.5022 66.4333 86.2689 67.9333 85.9355 69.2C85.1355 72 84.2689 74.8667 83.3355 77.8C82.4022 80.7333 81.4022 83.6 80.3355 86.4H82.0355H82.5355C82.8022 85.2667 83.1355 84.1333 83.5355 83C83.9355 81.8667 84.3022 80.7333 84.6355 79.6C85.5022 76.4667 86.3689 73.2667 87.2355 70C88.1022 66.6667 88.6022 63.1 88.7355 59.3C88.7355 58.9667 88.7689 58.8 88.8355 58.8C88.9689 58.8 89.0355 58.8667 89.0355 59C89.1022 59.1333 89.1689 59.2667 89.2355 59.4C89.8355 60.8667 90.1022 62.7333 90.0355 65C90.0355 67.2667 89.8355 69.6667 89.4355 72.2C89.0355 74.6667 88.5022 77.2 87.8355 79.8C87.2355 82.3333 86.6689 84.6333 86.1355 86.7C88.6022 86.9 90.9689 87.1667 93.2355 87.5C95.5689 87.8333 97.9022 88.1333 100.236 88.4C101.102 84.8 102.069 81.2667 103.136 77.8C104.269 74.2667 105.302 70.8667 106.236 67.6C107.236 64.2667 108.036 61.0333 108.636 57.9C109.302 54.7667 109.602 51.7667 109.536 48.9C109.536 48.5667 109.602 48.4 109.736 48.4C109.869 48.4 109.969 48.4667 110.036 48.6C110.102 48.7333 110.136 48.8333 110.136 48.9C111.002 51.9 111.302 55.0333 111.036 58.3C110.836 61.5 110.336 64.7667 109.536 68.1C108.736 71.4333 107.769 74.8333 106.636 78.3C105.502 81.7 104.469 85.1333 103.536 88.6C103.936 88.7333 104.336 88.7667 104.736 88.7C105.202 88.6333 105.669 88.6 106.136 88.6C106.402 86.9333 106.769 85.2333 107.236 83.5C107.702 81.7 108.136 80.1667 108.536 78.9C108.669 78.5 108.869 77.7 109.136 76.5C109.469 75.2333 109.802 73.7333 110.136 72C110.469 70.2667 110.802 68.4 111.136 66.4C111.536 64.4 111.836 62.4667 112.036 60.6C112.302 58.6667 112.436 56.9333 112.436 55.4C112.502 53.8667 112.436 52.6667 112.236 51.8C112.102 51.3333 112.136 51.0667 112.336 51C112.469 50.9333 112.602 51 112.736 51.2C112.869 51.3333 112.969 51.4667 113.036 51.6C113.769 52.7333 114.336 54.1 114.736 55.7C115.136 57.3 115.369 58.9667 115.436 60.7C115.569 62.4333 115.536 64.1667 115.336 65.9C115.202 67.6333 114.969 69.1333 114.636 70.4C113.836 73.4 112.902 76.4333 111.836 79.5C110.769 82.5667 109.669 85.6 108.536 88.6L111.036 88.2C111.369 87.0667 111.736 85.9 112.136 84.7C112.536 83.4333 112.902 82.2 113.236 81C114.169 77.8 115.036 74.5667 115.836 71.3C116.702 67.9667 117.202 64.4333 117.336 60.7C117.336 60.3667 117.336 60.2 117.336 60.2C117.336 60.1333 117.369 60.1 117.436 60.1C117.569 60.1 117.702 60.3 117.836 60.7C118.636 62.5 118.936 64.8333 118.736 67.7C118.536 70.5667 118.136 73.5667 117.536 76.7C116.936 79.7667 116.236 82.7667 115.436 85.7C114.636 88.5667 114.036 90.8667 113.636 92.6C112.902 95.8 111.969 99.1 110.836 102.5C109.702 105.9 108.702 108.867 107.836 111.4C107.636 112.2 107.369 112.6 107.036 112.6C106.902 112.533 106.836 112.333 106.836 112C106.902 111.667 106.936 111.333 106.936 111C107.069 108.133 107.336 105.3 107.736 102.5C108.202 99.6333 108.802 96.7 109.536 93.7C107.869 94.8333 105.969 95.6667 103.836 96.2C101.702 96.7333 99.8689 96.9333 98.3355 96.8ZM78.3355 109.7C78.4689 106.5 78.7689 103.367 79.2355 100.3C78.1022 100.167 76.9689 100.033 75.8355 99.9C74.7689 99.7 73.7022 99.5 72.6355 99.3C72.3689 102.9 72.4689 106.467 72.9355 110C73.4022 113.467 74.4022 116.667 75.9355 119.6C76.0689 119.867 76.1355 120 76.1355 120C76.1355 120.333 75.9355 120.333 75.5355 120C72.8689 117.067 71.1355 113.8 70.3355 110.2C69.6022 106.533 69.3689 102.767 69.6355 98.9L67.4355 98.5C67.1022 98.5 66.8022 98.4333 66.5355 98.3C66.3355 98.1667 66.2355 98.0333 66.2355 97.9C66.2355 97.7667 66.3689 97.6667 66.6355 97.6C66.9022 97.5333 67.1355 97.4667 67.3355 97.4C71.1355 96.6 74.9355 96.3 78.7355 96.5C82.5355 96.7 86.4022 97.0333 90.3355 97.5C92.8022 97.7667 95.3022 98 97.8355 98.2C100.369 98.4 103.036 98.1667 105.836 97.5C106.102 97.4333 106.269 97.4667 106.336 97.6C106.336 97.6667 106.202 97.8333 105.936 98.1C104.802 99.1667 103.269 99.9 101.336 100.3C101.002 103.9 101.036 107.467 101.436 111C101.836 114.467 102.836 117.467 104.436 120C104.636 120.2 104.636 120.3 104.436 120.3C104.369 120.3 104.302 120.267 104.236 120.2C104.169 120.133 104.069 120.067 103.936 120C102.669 118.933 101.636 117.7 100.836 116.3C100.102 114.833 99.5355 113.267 99.1355 111.6C98.7355 109.933 98.4689 108.2 98.3355 106.4C98.2689 104.533 98.2689 102.667 98.3355 100.8C96.9355 100.933 95.5022 101 94.0355 101C92.5689 101 91.1355 100.967 89.7355 100.9C88.3355 100.833 87.0022 100.767 85.7355 100.7C84.4689 100.567 83.3689 100.467 82.4355 100.4C81.9022 102.2 81.3355 103.933 80.7355 105.6C80.1355 107.2 79.6355 108.667 79.2355 110C79.1022 110.333 78.9689 110.667 78.8355 111C78.7022 111.267 78.5689 111.333 78.4355 111.2C78.3022 111.2 78.2355 111.033 78.2355 110.7C78.3022 110.367 78.3355 110.033 78.3355 109.7ZM105.636 114.2C105.969 115.467 106.269 116.6 106.536 117.6C106.802 118.6 107.169 119.4 107.636 120C107.702 120.067 107.769 120.133 107.836 120.2C107.902 120.333 107.869 120.433 107.736 120.5C107.469 120.5 107.102 120.333 106.636 120C105.902 119.467 105.236 118.867 104.636 118.2C104.102 117.533 103.669 116.2 103.336 114.2C103.202 113.4 103.136 112.433 103.136 111.3C103.136 110.167 103.169 109.1 103.236 108.1C103.302 107.033 103.402 106.133 103.536 105.4C103.736 104.667 103.936 104.333 104.136 104.4C104.269 104.4 104.369 104.567 104.436 104.9C104.502 105.233 104.569 105.6 104.636 106C104.702 106.4 104.736 106.8 104.736 107.2C104.802 107.6 104.836 107.9 104.836 108.1C104.969 109.233 105.069 110.3 105.136 111.3C105.269 112.3 105.436 113.267 105.636 114.2ZM77.0355 112.9C77.4355 115.3 78.0689 117.533 78.9355 119.6C79.0689 120.067 79.1022 120.3 79.0355 120.3C78.7022 120.3 78.3355 120.1 77.9355 119.7C77.0689 118.7 76.4022 117.8 75.9355 117C75.5355 116.2 75.1689 114.833 74.8355 112.9C74.7022 112.167 74.6022 111.233 74.5355 110.1C74.5355 108.967 74.5689 107.867 74.6355 106.8C74.7022 105.733 74.8022 104.833 74.9355 104.1C75.1355 103.367 75.3355 103 75.5355 103C75.6022 103 75.6689 103.167 75.7355 103.5C75.8689 103.833 75.9689 104.233 76.0355 104.7C76.1022 105.1 76.1689 105.533 76.2355 106C76.3022 106.4 76.3355 106.667 76.3355 106.8C76.4689 107.933 76.5689 109 76.6355 110C76.7689 111 76.9022 111.967 77.0355 112.9ZM64.8355 96.8C63.9689 97.2667 63.3689 97.6667 63.0355 98C62.7022 98.3333 62.3022 98.7667 61.8355 99.3C61.5689 99.6333 61.4355 99.7333 61.4355 99.6C61.4355 99.4667 61.4355 99.3 61.4355 99.1C61.7022 98.1 62.0355 97.3 62.4355 96.7C62.8355 96.1 63.5022 95.4333 64.4355 94.7C64.9022 94.3 65.5355 93.9667 66.3355 93.7C67.2022 93.4333 68.0355 93.2667 68.8355 93.2C69.6355 93.0667 70.3355 93.0333 70.9355 93.1C71.5355 93.1 71.8355 93.2 71.8355 93.4C71.8355 93.6 71.4355 93.8667 70.6355 94.2C69.9022 94.5333 69.4355 94.7667 69.2355 94.9C68.4355 95.2333 67.6689 95.5667 66.9355 95.9C66.2022 96.1667 65.5022 96.4667 64.8355 96.8Z" fill="white"/>
</svg>
