<svg width="50" height="50" viewBox="0 0 50 50" fill="none" xmlns="http://www.w3.org/2000/svg">
<path d="M0 12C0 6.34315 0 3.51472 1.75736 1.75736C3.51472 0 6.34315 0 12 0H38C43.6569 0 46.4853 0 48.2426 1.75736C50 3.51472 50 6.34315 50 12V38C50 43.6569 50 46.4853 48.2426 48.2426C46.4853 50 43.6569 50 38 50H12C6.34315 50 3.51472 50 1.75736 48.2426C0 46.4853 0 43.6569 0 38V12Z" fill="white"/>
<g clip-path="url(#clip0_78_1680)">
<path d="M30.25 11H19.75C17.4294 11 15.2038 11.9219 13.5628 13.5628C11.9219 15.2038 11 17.4294 11 19.75L11 30.25C11 32.5706 11.9219 34.7962 13.5628 36.4372C15.2038 38.0781 17.4294 39 19.75 39H30.25C32.5706 39 34.7962 38.0781 36.4372 36.4372C38.0781 34.7962 39 32.5706 39 30.25V19.75C39 17.4294 38.0781 15.2038 36.4372 13.5628C34.7962 11.9219 32.5706 11 30.25 11V11ZM36.375 30.25C36.375 33.6275 33.6275 36.375 30.25 36.375H19.75C16.3725 36.375 13.625 33.6275 13.625 30.25V19.75C13.625 16.3725 16.3725 13.625 19.75 13.625H30.25C33.6275 13.625 36.375 16.3725 36.375 19.75V30.25Z" fill="#171717"/>
<path d="M25 18C23.1435 18 21.363 18.7375 20.0503 20.0503C18.7375 21.363 18 23.1435 18 25C18 26.8565 18.7375 28.637 20.0503 29.9497C21.363 31.2625 23.1435 32 25 32C26.8565 32 28.637 31.2625 29.9497 29.9497C31.2625 28.637 32 26.8565 32 25C32 23.1435 31.2625 21.363 29.9497 20.0503C28.637 18.7375 26.8565 18 25 18ZM25 29.375C23.8401 29.3736 22.7281 28.9122 21.9079 28.0921C21.0878 27.2719 20.6264 26.1599 20.625 25C20.625 22.5868 22.5885 20.625 25 20.625C27.4115 20.625 29.375 22.5868 29.375 25C29.375 27.4115 27.4115 29.375 25 29.375Z" fill="#171717"/>
<path d="M32.5245 18.4077C33.0397 18.4077 33.4573 17.9901 33.4573 17.475C33.4573 16.9598 33.0397 16.5422 32.5245 16.5422C32.0094 16.5422 31.5918 16.9598 31.5918 17.475C31.5918 17.9901 32.0094 18.4077 32.5245 18.4077Z" fill="#171717"/>
</g>
<defs>
<clipPath id="clip0_78_1680">
<rect width="28" height="28" fill="white" transform="translate(11 11)"/>
</clipPath>
</defs>
</svg>
