<svg width="130" height="130" viewBox="0 0 130 130" fill="none" xmlns="http://www.w3.org/2000/svg">
<path d="M127.5 65C127.5 99.5178 99.5178 127.5 65 127.5C30.4822 127.5 2.5 99.5178 2.5 65C2.5 30.4822 30.4822 2.5 65 2.5C99.5178 2.5 127.5 30.4822 127.5 65Z" fill="#D9D9D9" stroke="#FF521B" stroke-width="5"/>
<circle cx="65" cy="65" r="60" fill="white"/>
<path d="M87.25 31H41.75C36.3676 31.006 32.006 35.3676 32 40.75V70.2222V86.25C32.006 91.6324 36.3676 95.994 41.75 96H87.25C87.8425 95.9992 88.4269 95.9286 89.0035 95.8215C89.2184 95.7822 89.4233 95.7229 89.6329 95.6697C89.9775 95.5816 90.3157 95.4791 90.6486 95.3537C90.8906 95.2631 91.1268 95.1681 91.3593 95.0592C91.6323 94.9306 91.8931 94.7816 92.1538 94.6277C92.3981 94.4841 92.6451 94.3494 92.8752 94.1858C92.8941 94.1723 92.9155 94.1633 92.9343 94.1497C92.9585 94.1322 92.9794 94.1106 93.0026 94.0917C93.047 94.0558 93.1027 94.0382 93.1434 93.9975C93.165 93.9759 93.1718 93.9469 93.1918 93.9245C95.4904 92.141 96.9966 89.384 97 86.25V76.7285V40.75C96.994 35.3676 92.6324 31.006 87.25 31ZM89.1186 92.4425C88.5122 92.6304 87.8854 92.7496 87.25 92.75H41.75C38.162 92.7454 35.2546 89.838 35.25 86.25V70.895L47.4788 58.6663C49.7018 56.4509 53.2982 56.4509 55.5212 58.6663L66.587 69.731C66.5931 69.7374 66.5947 69.7459 66.6011 69.7522L89.2503 92.4015C89.2067 92.4158 89.1626 92.429 89.1186 92.4425ZM93.75 86.25C93.7478 87.928 93.0934 89.4421 92.0488 90.5952L70.0514 68.5997L73.4819 65.1694C75.7284 63.0176 79.2716 63.0176 81.5181 65.1694L93.75 77.4014V86.25ZM93.75 72.8057L83.8159 62.8716C80.3263 59.3867 74.6737 59.3867 71.1841 62.8716L67.7536 66.3021L57.8191 56.3684C54.3271 52.8835 48.6729 52.8835 45.1809 56.3684L35.25 66.2993V40.75C35.2546 37.162 38.162 34.2546 41.75 34.25H87.25C90.838 34.2546 93.7454 37.162 93.75 40.75V72.8057Z" fill="#171717"/>
<circle cx="73" cy="48" r="4.35" fill="#FF521B" stroke="black" stroke-width="1.3"/>
</svg>
