<svg width="32" height="32" viewBox="0 0 32 32" fill="none" xmlns="http://www.w3.org/2000/svg">
<path d="M6.66667 18.6668C8.13943 18.6668 9.33333 17.4729 9.33333 16.0002C9.33333 14.5274 8.13943 13.3335 6.66667 13.3335C5.19391 13.3335 4 14.5274 4 16.0002C4 17.4729 5.19391 18.6668 6.66667 18.6668Z" fill="white"/>
<path d="M25.3337 18.6668C26.8064 18.6668 28.0003 17.4729 28.0003 16.0002C28.0003 14.5274 26.8064 13.3335 25.3337 13.3335C23.8609 13.3335 22.667 14.5274 22.667 16.0002C22.667 17.4729 23.8609 18.6668 25.3337 18.6668Z" fill="white"/>
<path d="M15.9997 18.6668C17.4724 18.6668 18.6663 17.4729 18.6663 16.0002C18.6663 14.5274 17.4724 13.3335 15.9997 13.3335C14.5269 13.3335 13.333 14.5274 13.333 16.0002C13.333 17.4729 14.5269 18.6668 15.9997 18.6668Z" fill="white"/>
</svg>
