<svg width="128" height="50" viewBox="0 0 128 50" fill="none" xmlns="http://www.w3.org/2000/svg">
<path d="M23 1.1547C23.9761 0.591167 24.4641 0.309401 25 0.309401C25.5359 0.309401 26.0239 0.591168 27 1.1547L44.6506 11.3453C45.6267 11.9088 46.1147 12.1906 46.3827 12.6547C46.6506 13.1188 46.6506 13.6823 46.6506 14.8094V35.1906C46.6506 36.3177 46.6506 36.8812 46.3827 37.3453C46.1147 37.8094 45.6267 38.0912 44.6506 38.6547L27 48.8453C26.0239 49.4088 25.5359 49.6906 25 49.6906C24.4641 49.6906 23.9761 49.4088 23 48.8453L5.34936 38.6547C4.3733 38.0912 3.88526 37.8094 3.61731 37.3453C3.34937 36.8812 3.34937 36.3177 3.34937 35.1906V14.8094C3.34937 13.6823 3.34937 13.1188 3.61731 12.6547C3.88526 12.1906 4.3733 11.9088 5.34937 11.3453L23 1.1547Z" fill="#171717"/>
<path d="M26.5059 27.4023C25.6459 27.3223 24.7559 27.2123 23.8359 27.0723C22.9359 26.9123 22.0859 26.7223 21.2859 26.5023C21.2459 26.4823 21.1559 26.4523 21.0159 26.4123C20.8759 26.3723 20.8059 26.3323 20.8059 26.2923C20.8059 26.2323 20.8759 26.1923 21.0159 26.1723C21.1559 26.1523 21.2459 26.1423 21.2859 26.1423C21.6859 26.1023 22.1959 26.0823 22.8159 26.0823C23.4359 26.0623 23.9459 26.0823 24.3459 26.1423C24.7259 26.2023 25.1659 26.2523 25.6659 26.2923C26.1859 26.3323 26.7059 26.3423 27.2259 26.3223C27.7459 26.3023 28.2459 26.2523 28.7259 26.1723C29.2259 26.0923 29.6559 25.9723 30.0159 25.8123C30.1759 25.7523 30.3559 25.6323 30.5559 25.4523C30.7559 25.2723 30.9059 25.0923 31.0059 24.9123C30.3659 25.3323 29.6559 25.5923 28.8759 25.6923C28.0959 25.7923 27.2759 25.8123 26.4159 25.7523C25.5759 25.6923 24.7159 25.6023 23.8359 25.4823C22.9759 25.3623 22.1259 25.2823 21.2859 25.2423C20.7459 25.2223 20.1859 25.2423 19.6059 25.3023C19.0459 25.3623 18.4959 25.4823 17.9559 25.6623C17.4359 25.8423 16.9559 26.0823 16.5159 26.3823C16.0759 26.6823 15.7159 27.0523 15.4359 27.4923C15.3959 27.5923 15.3859 27.6123 15.4059 27.5523C15.4059 27.4723 15.4059 27.4123 15.4059 27.3723C15.5659 26.5723 15.9359 25.9723 16.5159 25.5723C17.1159 25.1523 17.7659 24.8323 18.4659 24.6123C18.7259 23.5323 19.0259 22.4623 19.3659 21.4023C19.7059 20.3423 20.0159 19.3123 20.2959 18.3123C20.5959 17.3123 20.8359 16.3423 21.0159 15.4023C21.2159 14.4623 21.3059 13.5523 21.2859 12.6723C21.3059 12.6323 21.3059 12.5923 21.2859 12.5523C21.2859 12.5123 21.3059 12.4923 21.3459 12.4923C21.3859 12.4723 21.4059 12.5023 21.4059 12.5823C21.4259 12.6423 21.4359 12.6823 21.4359 12.7023C21.6959 13.5823 21.7959 14.5023 21.7359 15.4623C21.6759 16.4023 21.5259 17.3623 21.2859 18.3423C21.0659 19.3223 20.7859 20.3223 20.4459 21.3423C20.1259 22.3423 19.8259 23.3523 19.5459 24.3723L20.3259 24.2823C20.4259 23.8223 20.5259 23.3523 20.6259 22.8723C20.7459 22.3923 20.8659 21.9723 20.9859 21.6123C21.0259 21.4923 21.0859 21.2523 21.1659 20.8923C21.2659 20.5123 21.3659 20.0623 21.4659 19.5423C21.5659 19.0223 21.6659 18.4623 21.7659 17.8623C21.8859 17.2623 21.9759 16.6823 22.0359 16.1223C22.1159 15.5623 22.1559 15.0523 22.1559 14.5923C22.1759 14.1323 22.1559 13.7723 22.0959 13.5123C22.0959 13.3323 22.1059 13.2423 22.1259 13.2423C22.1659 13.2423 22.2059 13.2723 22.2459 13.3323C22.2859 13.3723 22.3159 13.4123 22.3359 13.4523C22.5559 13.7923 22.7159 14.2023 22.8159 14.6823C22.9359 15.1623 23.0059 15.6723 23.0259 16.2123C23.0659 16.7323 23.0559 17.2523 22.9959 17.7723C22.9559 18.2923 22.8859 18.7423 22.7859 19.1223C22.5459 19.9623 22.2859 20.8223 22.0059 21.7023C21.7259 22.5823 21.4259 23.4423 21.1059 24.2823H21.6159H21.7659C21.8459 23.9423 21.9459 23.6023 22.0659 23.2623C22.1859 22.9223 22.2959 22.5823 22.3959 22.2423C22.6559 21.3023 22.9159 20.3423 23.1759 19.3623C23.4359 18.3623 23.5859 17.2923 23.6259 16.1523C23.6259 16.0523 23.6359 16.0023 23.6559 16.0023C23.6959 16.0023 23.7159 16.0223 23.7159 16.0623C23.7359 16.1023 23.7559 16.1423 23.7759 16.1823C23.9559 16.6223 24.0359 17.1823 24.0159 17.8623C24.0159 18.5423 23.9559 19.2623 23.8359 20.0223C23.7159 20.7623 23.5559 21.5223 23.3559 22.3023C23.1759 23.0623 23.0059 23.7523 22.8459 24.3723C23.5859 24.4323 24.2959 24.5123 24.9759 24.6123C25.6759 24.7123 26.3759 24.8023 27.0759 24.8823C27.3359 23.8023 27.6259 22.7423 27.9459 21.7023C28.2859 20.6423 28.5959 19.6223 28.8759 18.6423C29.1759 17.6423 29.4159 16.6723 29.5959 15.7323C29.7959 14.7923 29.8859 13.8923 29.8659 13.0323C29.8659 12.9323 29.8859 12.8823 29.9259 12.8823C29.9659 12.8823 29.9959 12.9023 30.0159 12.9423C30.0359 12.9823 30.0459 13.0123 30.0459 13.0323C30.3059 13.9323 30.3959 14.8723 30.3159 15.8523C30.2559 16.8123 30.1059 17.7923 29.8659 18.7923C29.6259 19.7923 29.3359 20.8123 28.9959 21.8523C28.6559 22.8723 28.3459 23.9023 28.0659 24.9423C28.1859 24.9823 28.3059 24.9923 28.4259 24.9723C28.5659 24.9523 28.7059 24.9423 28.8459 24.9423C28.9259 24.4423 29.0359 23.9323 29.1759 23.4123C29.3159 22.8723 29.4459 22.4123 29.5659 22.0323C29.6059 21.9123 29.6659 21.6723 29.7459 21.3123C29.8459 20.9323 29.9459 20.4823 30.0459 19.9623C30.1459 19.4423 30.2459 18.8823 30.3459 18.2823C30.4659 17.6823 30.5559 17.1023 30.6159 16.5423C30.6959 15.9623 30.7359 15.4423 30.7359 14.9823C30.7559 14.5223 30.7359 14.1623 30.6759 13.9023C30.6359 13.7623 30.6459 13.6823 30.7059 13.6623C30.7459 13.6423 30.7859 13.6623 30.8259 13.7223C30.8659 13.7623 30.8959 13.8023 30.9159 13.8423C31.1359 14.1823 31.3059 14.5923 31.4259 15.0723C31.5459 15.5523 31.6159 16.0523 31.6359 16.5723C31.6759 17.0923 31.6659 17.6123 31.6059 18.1323C31.5659 18.6523 31.4959 19.1023 31.3959 19.4823C31.1559 20.3823 30.8759 21.2923 30.5559 22.2123C30.2359 23.1323 29.9059 24.0423 29.5659 24.9423L30.3159 24.8223C30.4159 24.4823 30.5259 24.1323 30.6459 23.7723C30.7659 23.3923 30.8759 23.0223 30.9759 22.6623C31.2559 21.7023 31.5159 20.7323 31.7559 19.7523C32.0159 18.7523 32.1659 17.6923 32.2059 16.5723C32.2059 16.4723 32.2059 16.4223 32.2059 16.4223C32.2059 16.4023 32.2159 16.3923 32.2359 16.3923C32.2759 16.3923 32.3159 16.4523 32.3559 16.5723C32.5959 17.1123 32.6859 17.8123 32.6259 18.6723C32.5659 19.5323 32.4459 20.4323 32.2659 21.3723C32.0859 22.2923 31.8759 23.1923 31.6359 24.0723C31.3959 24.9323 31.2159 25.6223 31.0959 26.1423C30.8759 27.1023 30.5959 28.0923 30.2559 29.1123C29.9159 30.1323 29.6159 31.0223 29.3559 31.7823C29.2959 32.0223 29.2159 32.1423 29.1159 32.1423C29.0759 32.1223 29.0559 32.0623 29.0559 31.9623C29.0759 31.8623 29.0859 31.7623 29.0859 31.6623C29.1259 30.8023 29.2059 29.9523 29.3259 29.1123C29.4659 28.2523 29.6459 27.3723 29.8659 26.4723C29.3659 26.8123 28.7959 27.0623 28.1559 27.2223C27.5159 27.3823 26.9659 27.4423 26.5059 27.4023ZM20.5059 31.2723C20.5459 30.3123 20.6359 29.3723 20.7759 28.4523C20.4359 28.4123 20.0959 28.3723 19.7559 28.3323C19.4359 28.2723 19.1159 28.2123 18.7959 28.1523C18.7159 29.2323 18.7459 30.3023 18.8859 31.3623C19.0259 32.4023 19.3259 33.3623 19.7859 34.2423C19.8259 34.3223 19.8459 34.3623 19.8459 34.3623C19.8459 34.4623 19.7859 34.4623 19.6659 34.3623C18.8659 33.4823 18.3459 32.5023 18.1059 31.4223C17.8859 30.3223 17.8159 29.1923 17.8959 28.0323L17.2359 27.9123C17.1359 27.9123 17.0459 27.8923 16.9659 27.8523C16.9059 27.8123 16.8759 27.7723 16.8759 27.7323C16.8759 27.6923 16.9159 27.6623 16.9959 27.6423C17.0759 27.6223 17.1459 27.6023 17.2059 27.5823C18.3459 27.3423 19.4859 27.2523 20.6259 27.3123C21.7659 27.3723 22.9259 27.4723 24.1059 27.6123C24.8459 27.6923 25.5959 27.7623 26.3559 27.8223C27.1159 27.8823 27.9159 27.8123 28.7559 27.6123C28.8359 27.5923 28.8859 27.6023 28.9059 27.6423C28.9059 27.6623 28.8659 27.7123 28.7859 27.7923C28.4459 28.1123 27.9859 28.3323 27.4059 28.4523C27.3059 29.5323 27.3159 30.6023 27.4359 31.6623C27.5559 32.7023 27.8559 33.6023 28.3359 34.3623C28.3959 34.4223 28.3959 34.4523 28.3359 34.4523C28.3159 34.4523 28.2959 34.4423 28.2759 34.4223C28.2559 34.4023 28.2259 34.3823 28.1859 34.3623C27.8059 34.0423 27.4959 33.6723 27.2559 33.2523C27.0359 32.8123 26.8659 32.3423 26.7459 31.8423C26.6259 31.3423 26.5459 30.8223 26.5059 30.2823C26.4859 29.7223 26.4859 29.1623 26.5059 28.6023C26.0859 28.6423 25.6559 28.6623 25.2159 28.6623C24.7759 28.6623 24.3459 28.6523 23.9259 28.6323C23.5059 28.6123 23.1059 28.5923 22.7259 28.5723C22.3459 28.5323 22.0159 28.5023 21.7359 28.4823C21.5759 29.0223 21.4059 29.5423 21.2259 30.0423C21.0459 30.5223 20.8959 30.9623 20.7759 31.3623C20.7359 31.4623 20.6959 31.5623 20.6559 31.6623C20.6159 31.7423 20.5759 31.7623 20.5359 31.7223C20.4959 31.7223 20.4759 31.6723 20.4759 31.5723C20.4959 31.4723 20.5059 31.3723 20.5059 31.2723ZM28.6959 32.6223C28.7959 33.0023 28.8859 33.3423 28.9659 33.6423C29.0459 33.9423 29.1559 34.1823 29.2959 34.3623C29.3159 34.3823 29.3359 34.4023 29.3559 34.4223C29.3759 34.4623 29.3659 34.4923 29.3259 34.5123C29.2459 34.5123 29.1359 34.4623 28.9959 34.3623C28.7759 34.2023 28.5759 34.0223 28.3959 33.8223C28.2359 33.6223 28.1059 33.2223 28.0059 32.6223C27.9659 32.3823 27.9459 32.0923 27.9459 31.7523C27.9459 31.4123 27.9559 31.0923 27.9759 30.7923C27.9959 30.4723 28.0259 30.2023 28.0659 29.9823C28.1259 29.7623 28.1859 29.6623 28.2459 29.6823C28.2859 29.6823 28.3159 29.7323 28.3359 29.8323C28.3559 29.9323 28.3759 30.0423 28.3959 30.1623C28.4159 30.2823 28.4259 30.4023 28.4259 30.5223C28.4459 30.6423 28.4559 30.7323 28.4559 30.7923C28.4959 31.1323 28.5259 31.4523 28.5459 31.7523C28.5859 32.0523 28.6359 32.3423 28.6959 32.6223ZM20.1159 32.2323C20.2359 32.9523 20.4259 33.6223 20.6859 34.2423C20.7259 34.3823 20.7359 34.4523 20.7159 34.4523C20.6159 34.4523 20.5059 34.3923 20.3859 34.2723C20.1259 33.9723 19.9259 33.7023 19.7859 33.4623C19.6659 33.2223 19.5559 32.8123 19.4559 32.2323C19.4159 32.0123 19.3859 31.7323 19.3659 31.3923C19.3659 31.0523 19.3759 30.7223 19.3959 30.4023C19.4159 30.0823 19.4459 29.8123 19.4859 29.5923C19.5459 29.3723 19.6059 29.2623 19.6659 29.2623C19.6859 29.2623 19.7059 29.3123 19.7259 29.4123C19.7659 29.5123 19.7959 29.6323 19.8159 29.7723C19.8359 29.8923 19.8559 30.0223 19.8759 30.1623C19.8959 30.2823 19.9059 30.3623 19.9059 30.4023C19.9459 30.7423 19.9759 31.0623 19.9959 31.3623C20.0359 31.6623 20.0759 31.9523 20.1159 32.2323ZM16.4559 27.4023C16.1959 27.5423 16.0159 27.6623 15.9159 27.7623C15.8159 27.8623 15.6959 27.9923 15.5559 28.1523C15.4759 28.2523 15.4359 28.2823 15.4359 28.2423C15.4359 28.2023 15.4359 28.1523 15.4359 28.0923C15.5159 27.7923 15.6159 27.5523 15.7359 27.3723C15.8559 27.1923 16.0559 26.9923 16.3359 26.7723C16.4759 26.6523 16.6659 26.5523 16.9059 26.4723C17.1659 26.3923 17.4159 26.3423 17.6559 26.3223C17.8959 26.2823 18.1059 26.2723 18.2859 26.2923C18.4659 26.2923 18.5559 26.3223 18.5559 26.3823C18.5559 26.4423 18.4359 26.5223 18.1959 26.6223C17.9759 26.7223 17.8359 26.7923 17.7759 26.8323C17.5359 26.9323 17.3059 27.0323 17.0859 27.1323C16.8659 27.2123 16.6559 27.3023 16.4559 27.4023Z" fill="white"/>
<path d="M71.656 33.5V15.98H75.064V33.5H71.656ZM60.16 33.5V15.98H63.568V33.5H60.16ZM62.944 26.228V23.228H72.28V26.228H62.944ZM79.3788 33.5V15.98H82.7148V33.5H79.3788ZM82.2348 33.5V30.62H90.1788V33.5H82.2348ZM82.2348 26.036V23.156H89.5547V26.036H82.2348ZM82.2348 18.86V15.98H89.9868V18.86H82.2348ZM91.7796 33.5L97.9476 24.164L97.9716 24.572L92.3076 15.98H96.0996L99.8916 21.86H100.396L104.164 15.98H107.812L102.076 24.644L102.028 24.236L108.34 33.5H104.572L100.156 26.924H99.6516L95.4276 33.5H91.7796ZM108.987 33.5L114.963 15.98H120.531L126.675 33.5H123.171L117.963 18.308L119.187 18.836H116.187L117.435 18.308L112.395 33.5H108.987ZM113.163 28.844L114.243 25.964H121.347L122.403 28.844H113.163Z" fill="#FF521B"/>
</svg>
