<svg width="142" height="65" viewBox="0 0 142 65" fill="none" xmlns="http://www.w3.org/2000/svg">
<path d="M30.5 1.1547C31.4761 0.591167 31.9641 0.309401 32.5 0.309401C33.0359 0.309401 33.5239 0.591167 34.5 1.1547L58.6458 15.0953C59.6219 15.6588 60.1099 15.9406 60.3779 16.4047C60.6458 16.8688 60.6458 17.4323 60.6458 18.5594V46.4406C60.6458 47.5677 60.6458 48.1312 60.3779 48.5953C60.1099 49.0594 59.6219 49.3412 58.6458 49.9047L34.5 63.8453C33.5239 64.4088 33.0359 64.6906 32.5 64.6906C31.9641 64.6906 31.4761 64.4088 30.5 63.8453L6.35417 49.9047C5.37811 49.3412 4.89007 49.0594 4.62212 48.5953C4.35417 48.1312 4.35417 47.5677 4.35417 46.4406V18.5594C4.35417 17.4323 4.35417 16.8688 4.62212 16.4047C4.89007 15.9406 5.37811 15.6588 6.35417 15.0953L30.5 1.1547Z" fill="white"/>
<path d="M35.5021 35.898C34.4701 35.802 33.4021 35.67 32.2981 35.502C31.2181 35.31 30.1981 35.082 29.2381 34.818C29.1901 34.794 29.0821 34.758 28.9141 34.71C28.7461 34.662 28.6621 34.614 28.6621 34.566C28.6621 34.494 28.7461 34.446 28.9141 34.422C29.0821 34.398 29.1901 34.386 29.2381 34.386C29.7181 34.338 30.3301 34.314 31.0741 34.314C31.8181 34.29 32.4301 34.314 32.9101 34.386C33.3661 34.458 33.8941 34.518 34.4941 34.566C35.1181 34.614 35.7421 34.626 36.3661 34.602C36.9901 34.578 37.5901 34.518 38.1661 34.422C38.7661 34.326 39.2821 34.182 39.7141 33.99C39.9061 33.918 40.1221 33.774 40.3621 33.558C40.6021 33.342 40.7821 33.126 40.9021 32.91C40.1341 33.414 39.2821 33.726 38.3461 33.846C37.4101 33.966 36.4261 33.99 35.3941 33.918C34.3861 33.846 33.3541 33.738 32.2981 33.594C31.2661 33.45 30.2461 33.354 29.2381 33.306C28.5901 33.282 27.9181 33.306 27.2221 33.378C26.5501 33.45 25.8901 33.594 25.2421 33.81C24.6181 34.026 24.0421 34.314 23.5141 34.674C22.9861 35.034 22.5541 35.478 22.2181 36.006C22.1701 36.126 22.1581 36.15 22.1821 36.078C22.1821 35.982 22.1821 35.91 22.1821 35.862C22.3741 34.902 22.8181 34.182 23.5141 33.702C24.2341 33.198 25.0141 32.814 25.8541 32.55C26.1661 31.254 26.5261 29.97 26.9341 28.698C27.3421 27.426 27.7141 26.19 28.0501 24.99C28.4101 23.79 28.6981 22.626 28.9141 21.498C29.1541 20.37 29.2621 19.278 29.2381 18.222C29.2621 18.174 29.2621 18.126 29.2381 18.078C29.2381 18.03 29.2621 18.006 29.3101 18.006C29.3581 17.982 29.3821 18.018 29.3821 18.114C29.4061 18.186 29.4181 18.234 29.4181 18.258C29.7301 19.314 29.8501 20.418 29.7781 21.57C29.7061 22.698 29.5261 23.85 29.2381 25.026C28.9741 26.202 28.6381 27.402 28.2301 28.626C27.8461 29.826 27.4861 31.038 27.1501 32.262L28.0861 32.154C28.2061 31.602 28.3261 31.038 28.4461 30.462C28.5901 29.886 28.7341 29.382 28.8781 28.95C28.9261 28.806 28.9981 28.518 29.0941 28.086C29.2141 27.63 29.3341 27.09 29.4541 26.466C29.5741 25.842 29.6941 25.17 29.8141 24.45C29.9581 23.73 30.0661 23.034 30.1381 22.362C30.2341 21.69 30.2821 21.078 30.2821 20.526C30.3061 19.974 30.2821 19.542 30.2101 19.23C30.2101 19.014 30.2221 18.906 30.2461 18.906C30.2941 18.906 30.3421 18.942 30.3901 19.014C30.4381 19.062 30.4741 19.11 30.4981 19.158C30.7621 19.566 30.9541 20.058 31.0741 20.634C31.2181 21.21 31.3021 21.822 31.3261 22.47C31.3741 23.094 31.3621 23.718 31.2901 24.342C31.2421 24.966 31.1581 25.506 31.0381 25.962C30.7501 26.97 30.4381 28.002 30.1021 29.058C29.7661 30.114 29.4061 31.146 29.0221 32.154H29.6341H29.8141C29.9101 31.746 30.0301 31.338 30.1741 30.93C30.3181 30.522 30.4501 30.114 30.5701 29.706C30.8821 28.578 31.1941 27.426 31.5061 26.25C31.8181 25.05 31.9981 23.766 32.0461 22.398C32.0461 22.278 32.0581 22.218 32.0821 22.218C32.1301 22.218 32.1541 22.242 32.1541 22.29C32.1781 22.338 32.2021 22.386 32.2261 22.434C32.4421 22.962 32.5381 23.634 32.5141 24.45C32.5141 25.266 32.4421 26.13 32.2981 27.042C32.1541 27.93 31.9621 28.842 31.7221 29.778C31.5061 30.69 31.3021 31.518 31.1101 32.262C31.9981 32.334 32.8501 32.43 33.6661 32.55C34.5061 32.67 35.3461 32.778 36.1861 32.874C36.4981 31.578 36.8461 30.306 37.2301 29.058C37.6381 27.786 38.0101 26.562 38.3461 25.386C38.7061 24.186 38.9941 23.022 39.2101 21.894C39.4501 20.766 39.5581 19.686 39.5341 18.654C39.5341 18.534 39.5581 18.474 39.6061 18.474C39.6541 18.474 39.6901 18.498 39.7141 18.546C39.7381 18.594 39.7501 18.63 39.7501 18.654C40.0621 19.734 40.1701 20.862 40.0741 22.038C40.0021 23.19 39.8221 24.366 39.5341 25.566C39.2461 26.766 38.8981 27.99 38.4901 29.238C38.0821 30.462 37.7101 31.698 37.3741 32.946C37.5181 32.994 37.6621 33.006 37.8061 32.982C37.9741 32.958 38.1421 32.946 38.3101 32.946C38.4061 32.346 38.5381 31.734 38.7061 31.11C38.8741 30.462 39.0301 29.91 39.1741 29.454C39.2221 29.31 39.2941 29.022 39.3901 28.59C39.5101 28.134 39.6301 27.594 39.7501 26.97C39.8701 26.346 39.9901 25.674 40.1101 24.954C40.2541 24.234 40.3621 23.538 40.4341 22.866C40.5301 22.17 40.5781 21.546 40.5781 20.994C40.6021 20.442 40.5781 20.01 40.5061 19.698C40.4581 19.53 40.4701 19.434 40.5421 19.41C40.5901 19.386 40.6381 19.41 40.6861 19.482C40.7341 19.53 40.7701 19.578 40.7941 19.626C41.0581 20.034 41.2621 20.526 41.4061 21.102C41.5501 21.678 41.6341 22.278 41.6581 22.902C41.7061 23.526 41.6941 24.15 41.6221 24.774C41.5741 25.398 41.4901 25.938 41.3701 26.394C41.0821 27.474 40.7461 28.566 40.3621 29.67C39.9781 30.774 39.5821 31.866 39.1741 32.946L40.0741 32.802C40.1941 32.394 40.3261 31.974 40.4701 31.542C40.6141 31.086 40.7461 30.642 40.8661 30.21C41.2021 29.058 41.5141 27.894 41.8021 26.718C42.1141 25.518 42.2941 24.246 42.3421 22.902C42.3421 22.782 42.3421 22.722 42.3421 22.722C42.3421 22.698 42.3541 22.686 42.3781 22.686C42.4261 22.686 42.4741 22.758 42.5221 22.902C42.8101 23.55 42.9181 24.39 42.8461 25.422C42.7741 26.454 42.6301 27.534 42.4141 28.662C42.1981 29.766 41.9461 30.846 41.6581 31.902C41.3701 32.934 41.1541 33.762 41.0101 34.386C40.7461 35.538 40.4101 36.726 40.0021 37.95C39.5941 39.174 39.2341 40.242 38.9221 41.154C38.8501 41.442 38.7541 41.586 38.6341 41.586C38.5861 41.562 38.5621 41.49 38.5621 41.37C38.5861 41.25 38.5981 41.13 38.5981 41.01C38.6461 39.978 38.7421 38.958 38.8861 37.95C39.0541 36.918 39.2701 35.862 39.5341 34.782C38.9341 35.19 38.2501 35.49 37.4821 35.682C36.7141 35.874 36.0541 35.946 35.5021 35.898ZM28.3021 40.542C28.3501 39.39 28.4581 38.262 28.6261 37.158C28.2181 37.11 27.8101 37.062 27.4021 37.014C27.0181 36.942 26.6341 36.87 26.2501 36.798C26.1541 38.094 26.1901 39.378 26.3581 40.65C26.5261 41.898 26.8861 43.05 27.4381 44.106C27.4861 44.202 27.5101 44.25 27.5101 44.25C27.5101 44.37 27.4381 44.37 27.2941 44.25C26.3341 43.194 25.7101 42.018 25.4221 40.722C25.1581 39.402 25.0741 38.046 25.1701 36.654L24.3781 36.51C24.2581 36.51 24.1501 36.486 24.0541 36.438C23.9821 36.39 23.9461 36.342 23.9461 36.294C23.9461 36.246 23.9941 36.21 24.0901 36.186C24.1861 36.162 24.2701 36.138 24.3421 36.114C25.7101 35.826 27.0781 35.718 28.4461 35.79C29.8141 35.862 31.2061 35.982 32.6221 36.15C33.5101 36.246 34.4101 36.33 35.3221 36.402C36.2341 36.474 37.1941 36.39 38.2021 36.15C38.2981 36.126 38.3581 36.138 38.3821 36.186C38.3821 36.21 38.3341 36.27 38.2381 36.366C37.8301 36.75 37.2781 37.014 36.5821 37.158C36.4621 38.454 36.4741 39.738 36.6181 41.01C36.7621 42.258 37.1221 43.338 37.6981 44.25C37.7701 44.322 37.7701 44.358 37.6981 44.358C37.6741 44.358 37.6501 44.346 37.6261 44.322C37.6021 44.298 37.5661 44.274 37.5181 44.25C37.0621 43.866 36.6901 43.422 36.4021 42.918C36.1381 42.39 35.9341 41.826 35.7901 41.226C35.6461 40.626 35.5501 40.002 35.5021 39.354C35.4781 38.682 35.4781 38.01 35.5021 37.338C34.9981 37.386 34.4821 37.41 33.9541 37.41C33.4261 37.41 32.9101 37.398 32.4061 37.374C31.9021 37.35 31.4221 37.326 30.9661 37.302C30.5101 37.254 30.1141 37.218 29.7781 37.194C29.5861 37.842 29.3821 38.466 29.1661 39.066C28.9501 39.642 28.7701 40.17 28.6261 40.65C28.5781 40.77 28.5301 40.89 28.4821 41.01C28.4341 41.106 28.3861 41.13 28.3381 41.082C28.2901 41.082 28.2661 41.022 28.2661 40.902C28.2901 40.782 28.3021 40.662 28.3021 40.542ZM38.1301 42.162C38.2501 42.618 38.3581 43.026 38.4541 43.386C38.5501 43.746 38.6821 44.034 38.8501 44.25C38.8741 44.274 38.8981 44.298 38.9221 44.322C38.9461 44.37 38.9341 44.406 38.8861 44.43C38.7901 44.43 38.6581 44.37 38.4901 44.25C38.2261 44.058 37.9861 43.842 37.7701 43.602C37.5781 43.362 37.4221 42.882 37.3021 42.162C37.2541 41.874 37.2301 41.526 37.2301 41.118C37.2301 40.71 37.2421 40.326 37.2661 39.966C37.2901 39.582 37.3261 39.258 37.3741 38.994C37.4461 38.73 37.5181 38.61 37.5901 38.634C37.6381 38.634 37.6741 38.694 37.6981 38.814C37.7221 38.934 37.7461 39.066 37.7701 39.21C37.7941 39.354 37.8061 39.498 37.8061 39.642C37.8301 39.786 37.8421 39.894 37.8421 39.966C37.8901 40.374 37.9261 40.758 37.9501 41.118C37.9981 41.478 38.0581 41.826 38.1301 42.162ZM27.8341 41.694C27.9781 42.558 28.2061 43.362 28.5181 44.106C28.5661 44.274 28.5781 44.358 28.5541 44.358C28.4341 44.358 28.3021 44.286 28.1581 44.142C27.8461 43.782 27.6061 43.458 27.4381 43.17C27.2941 42.882 27.1621 42.39 27.0421 41.694C26.9941 41.43 26.9581 41.094 26.9341 40.686C26.9341 40.278 26.9461 39.882 26.9701 39.498C26.9941 39.114 27.0301 38.79 27.0781 38.526C27.1501 38.262 27.2221 38.13 27.2941 38.13C27.3181 38.13 27.3421 38.19 27.3661 38.31C27.4141 38.43 27.4501 38.574 27.4741 38.742C27.4981 38.886 27.5221 39.042 27.5461 39.21C27.5701 39.354 27.5821 39.45 27.5821 39.498C27.6301 39.906 27.6661 40.29 27.6901 40.65C27.7381 41.01 27.7861 41.358 27.8341 41.694ZM23.4421 35.898C23.1301 36.066 22.9141 36.21 22.7941 36.33C22.6741 36.45 22.5301 36.606 22.3621 36.798C22.2661 36.918 22.2181 36.954 22.2181 36.906C22.2181 36.858 22.2181 36.798 22.2181 36.726C22.3141 36.366 22.4341 36.078 22.5781 35.862C22.7221 35.646 22.9621 35.406 23.2981 35.142C23.4661 34.998 23.6941 34.878 23.9821 34.782C24.2941 34.686 24.5941 34.626 24.8821 34.602C25.1701 34.554 25.4221 34.542 25.6381 34.566C25.8541 34.566 25.9621 34.602 25.9621 34.674C25.9621 34.746 25.8181 34.842 25.5301 34.962C25.2661 35.082 25.0981 35.166 25.0261 35.214C24.7381 35.334 24.4621 35.454 24.1981 35.574C23.9341 35.67 23.6821 35.778 23.4421 35.898Z" fill="#171717"/>
<path d="M89.848 23.852V42H86.208V34.278H78.434V42H74.794V23.852H78.434V31.314H86.208V23.852H89.848ZM97.0707 26.79V31.34H103.181V34.226H97.0707V39.036H103.961V42H93.4307V23.826H103.961V26.79H97.0707ZM118.137 42L114.211 35.89L110.649 42H106.541L112.261 32.848L106.463 23.852H110.649L114.575 29.936L118.111 23.852H122.219L116.525 32.978L122.323 42H118.137ZM136.221 38.542H128.993L127.797 42H123.975L130.501 23.826H134.739L141.265 42H137.417L136.221 38.542ZM135.233 35.63L132.607 28.038L129.981 35.63H135.233Z" fill="#FF521B"/>
</svg>
