<svg width="50" height="50" viewBox="0 0 50 50" fill="none" xmlns="http://www.w3.org/2000/svg">
<path d="M0 12C0 6.34315 0 3.51472 1.75736 1.75736C3.51472 0 6.34315 0 12 0H38C43.6569 0 46.4853 0 48.2426 1.75736C50 3.51472 50 6.34315 50 12V38C50 43.6569 50 46.4853 48.2426 48.2426C46.4853 50 43.6569 50 38 50H12C6.34315 50 3.51472 50 1.75736 48.2426C0 46.4853 0 43.6569 0 38V12Z" fill="white"/>
<path d="M34.625 33.75H15.375C14.6788 33.75 14.0111 33.4734 13.5188 32.9812C13.0266 32.4889 12.75 31.8212 12.75 31.125V18.875C12.75 18.1788 13.0266 17.5111 13.5188 17.0188C14.0111 16.5266 14.6788 16.25 15.375 16.25H34.625C35.3212 16.25 35.9889 16.5266 36.4812 17.0188C36.9734 17.5111 37.25 18.1788 37.25 18.875V31.125C37.25 31.8212 36.9734 32.4889 36.4812 32.9812C35.9889 33.4734 35.3212 33.75 34.625 33.75ZM15.375 18C15.1429 18 14.9204 18.0922 14.7563 18.2563C14.5922 18.4204 14.5 18.6429 14.5 18.875V31.125C14.5 31.3571 14.5922 31.5796 14.7563 31.7437C14.9204 31.9078 15.1429 32 15.375 32H34.625C34.8571 32 35.0796 31.9078 35.2437 31.7437C35.4078 31.5796 35.5 31.3571 35.5 31.125V18.875C35.5 18.6429 35.4078 18.4204 35.2437 18.2563C35.0796 18.0922 34.8571 18 34.625 18H15.375Z" fill="#171717"/>
<path d="M24.9997 25.875C24.8282 25.8737 24.6609 25.822 24.5185 25.7263L14.0185 18.7263C13.8487 18.5895 13.7361 18.3943 13.7027 18.1789C13.6693 17.9634 13.7176 17.7433 13.838 17.5615C13.9584 17.3798 14.1424 17.2496 14.3538 17.1963C14.5652 17.1431 14.7889 17.1707 14.981 17.2738L25.481 24.2738C25.6362 24.3781 25.7539 24.5293 25.8168 24.7053C25.8798 24.8813 25.8848 25.0729 25.831 25.2519C25.7772 25.431 25.6674 25.588 25.5178 25.7002C25.3683 25.8123 25.1867 25.8736 24.9997 25.875Z" fill="#171717"/>
<path d="M25 25.8749C24.8123 25.8754 24.6295 25.8154 24.4785 25.704C24.3274 25.5925 24.2163 25.4355 24.1613 25.256C24.1064 25.0765 24.1107 24.8841 24.1735 24.7073C24.2362 24.5304 24.3542 24.3784 24.51 24.2737L35.01 17.2737C35.2025 17.1599 35.4314 17.1241 35.6494 17.1737C35.8675 17.2234 36.0583 17.3546 36.1827 17.5405C36.307 17.7265 36.3554 17.953 36.3179 18.1735C36.2805 18.394 36.16 18.5918 35.9813 18.7262L25.4813 25.7262C25.3389 25.8219 25.1715 25.8736 25 25.8749Z" fill="#171717"/>
</svg>
