<svg width="130" height="130" viewBox="0 0 130 130" fill="none" xmlns="http://www.w3.org/2000/svg">
<path d="M127.5 65C127.5 99.5178 99.5178 127.5 65 127.5C30.4822 127.5 2.5 99.5178 2.5 65C2.5 30.4822 30.4822 2.5 65 2.5C99.5178 2.5 127.5 30.4822 127.5 65Z" fill="#D9D9D9" stroke="#FF521B" stroke-width="5"/>
<circle cx="65" cy="65" r="60" fill="white"/>
<path d="M93.9803 66.0844C79.3012 48.5886 80.3439 49.6042 79.5449 49.4959C78.746 49.3876 79.0845 49.374 72.8689 54.5876C72.6157 54.8035 72.451 55.1051 72.406 55.4348C72.3611 55.7645 72.4391 56.0992 72.6251 56.3751L71.271 57.6209C67.5064 57.824 66.1928 57.7157 64.5001 58.5688C62.9699 57.7563 62.1303 57.8511 57.8512 57.648C55.5085 55.6709 56.7272 56.8219 56.6053 55.4949C56.5376 54.7365 56.6053 55.0209 50.4439 49.8074C50.3071 49.6933 50.1491 49.6074 49.979 49.5546C49.8089 49.5017 49.63 49.4829 49.4527 49.4992C49.2753 49.5156 49.1029 49.5668 48.9454 49.6499C48.7878 49.7329 48.6482 49.8463 48.5345 49.9834C33.8553 67.4792 34.7085 66.274 34.7085 67.073C34.7085 67.8719 34.7085 67.5469 40.8699 72.7605C41.1361 72.9712 41.4718 73.0742 41.8104 73.0491C42.149 73.0241 42.4658 72.8727 42.6981 72.6251L44.147 73.8438C45.0272 77.5678 45.122 78.7188 46.1918 80.1678C45.6097 80.6225 45.172 81.2364 44.9317 81.9349C44.6915 82.6334 44.6589 83.3866 44.8381 84.1032C45.0172 84.8198 45.4004 85.4691 45.9411 85.9724C46.4818 86.4756 47.1569 86.8113 47.8845 86.9386C47.8732 87.4762 47.9772 88.01 48.1894 88.504C48.4017 88.998 48.7173 89.4408 49.115 89.8026C49.5128 90.1645 49.9834 90.4369 50.4953 90.6016C51.0071 90.7663 51.5483 90.8194 52.0824 90.7574C52.2689 91.6706 52.7876 92.4822 53.5381 93.0351C54.2885 93.5879 55.2174 93.8427 56.1449 93.7501C56.281 94.3951 56.5817 94.994 57.0178 95.4884C57.4539 95.9828 58.0106 96.3558 58.6337 96.5712C59.2568 96.7866 59.925 96.8371 60.5733 96.7176C61.2217 96.5982 61.8281 96.313 62.3335 95.8897L63.4574 94.9417C65.0418 96.2959 65.6512 96.9324 67.2085 96.9324C67.9991 96.9453 68.774 96.7108 69.4247 96.2616C70.0754 95.8124 70.5695 95.171 70.8376 94.4272C71.5921 94.7761 72.4401 94.8683 73.252 94.6898C74.0639 94.5113 74.7949 94.0718 75.3335 93.4386C76.0647 92.5719 75.7803 92.3553 75.9699 92.5042C76.6725 93.0629 77.5495 93.3562 78.4468 93.3327C79.3442 93.3092 80.2045 92.9703 80.8769 92.3755C81.5492 91.7807 81.9905 90.9681 82.1234 90.0804C82.2562 89.1926 82.0721 88.2864 81.6033 87.5209C82.1506 87.2017 82.6105 86.7522 82.9422 86.2123C83.274 85.6725 83.4672 85.0591 83.5047 84.4266C83.5422 83.7941 83.4229 83.1622 83.1573 82.5869C82.8917 82.0117 82.4882 81.5109 81.9824 81.1292C83.8918 79.3959 83.9731 77.6219 84.8126 73.9792L86.3158 72.6251C86.5527 72.863 86.8695 73.0045 87.2048 73.022C87.5401 73.0395 87.87 72.9318 88.1303 72.7199C94.2918 67.6147 94.2918 67.8313 94.2918 67.073C94.3073 66.8958 94.2878 66.7174 94.2344 66.5477C94.181 66.3781 94.0946 66.2207 93.9803 66.0844V66.0844ZM37.972 66.7886L49.7397 52.7594L53.3418 55.7792L41.5741 69.8084L37.972 66.7886ZM47.4512 83.1469C47.4512 82.5511 47.722 82.4969 49.7397 80.8042C49.966 80.6139 50.2586 80.5212 50.5532 80.5466C50.8478 80.572 51.1202 80.7134 51.3106 80.9397C51.5009 81.1659 51.5936 81.4585 51.5682 81.7531C51.5428 82.0477 51.4014 82.3201 51.1751 82.5105C49.1439 84.2303 49.0626 84.4199 48.4668 84.3657C48.3155 84.3589 48.1671 84.3217 48.0305 84.2561C47.894 84.1906 47.7721 84.0981 47.6722 83.9843C47.5722 83.8705 47.4964 83.7376 47.4491 83.5937C47.4018 83.4498 47.3841 83.2979 47.397 83.1469H47.4512ZM51.6491 88.1574C51.5018 88.1455 51.3584 88.1044 51.2272 88.0364C51.0961 87.9684 50.9798 87.8749 50.8852 87.7614C50.7906 87.6479 50.7196 87.5167 50.6764 87.3754C50.6332 87.2341 50.6186 87.0856 50.6335 86.9386C50.6335 86.3428 50.9043 86.2886 52.922 84.5959C53.1483 84.4056 53.4409 84.3129 53.7355 84.3383C54.0301 84.3637 54.3025 84.5051 54.4928 84.7313C54.6832 84.9576 54.7759 85.2502 54.7505 85.5448C54.7251 85.8394 54.5837 86.1118 54.3574 86.3022C54.1137 86.3022 52.4616 88.2251 51.5949 88.1574H51.6491ZM55.1428 89.173C55.5626 88.8209 55.2241 89.173 57.0387 87.5886C57.268 87.4275 57.5493 87.3579 57.8273 87.3935C58.1053 87.429 58.36 87.5672 58.5414 87.7808C58.7229 87.9944 58.8179 88.2682 58.808 88.5483C58.798 88.8284 58.6838 89.0946 58.4876 89.2949C58.0137 89.7011 56.6053 90.8657 56.5918 90.8928C56.4789 90.9915 56.3476 91.067 56.2055 91.1149C56.0634 91.1629 55.9133 91.1824 55.7636 91.1724C55.614 91.1623 55.4678 91.1229 55.3334 91.0563C55.199 90.9897 55.079 90.8974 54.9803 90.7844C54.8816 90.6715 54.8062 90.5403 54.7582 90.3982C54.7102 90.2561 54.6907 90.1059 54.7008 89.9563C54.7108 89.8066 54.7503 89.6604 54.8168 89.5261C54.8834 89.3917 54.9758 89.2717 55.0887 89.173H55.1428ZM59.2731 92.1657C60.8033 90.8115 61.3178 90.324 61.8866 90.324C62.0414 90.3214 62.1949 90.3515 62.3372 90.4124C62.4795 90.4733 62.6073 90.5637 62.7122 90.6775C62.8171 90.7913 62.8967 90.9261 62.9458 91.0729C62.9949 91.2197 63.0123 91.3752 62.997 91.5292C62.997 92.1251 62.7262 92.1928 60.7085 93.8855C60.5956 93.9833 60.4645 94.0579 60.3227 94.1051C60.181 94.1522 60.0313 94.171 59.8823 94.1603C59.7333 94.1496 59.5878 94.1097 59.4543 94.0428C59.3207 93.9759 59.2016 93.8833 59.1038 93.7704C59.006 93.6575 58.9314 93.5264 58.8842 93.3846C58.8371 93.2429 58.8183 93.0932 58.829 92.9442C58.8397 92.7952 58.8796 92.6497 58.9465 92.5162C59.0134 92.3826 59.106 92.2635 59.2189 92.1657H59.2731ZM79.0168 85.0428L72.7606 79.7886C72.484 79.5588 72.1275 79.4482 71.7694 79.4812C71.4113 79.5142 71.081 79.6881 70.8512 79.9647C70.6213 80.2412 70.5107 80.5977 70.5438 80.9558C70.5768 81.3139 70.7507 81.6442 71.0272 81.874L79.0845 88.6449C79.2745 88.7755 79.4197 88.9614 79.5004 89.1773C79.5812 89.3933 79.5935 89.6288 79.5359 89.852C79.4782 90.0753 79.3533 90.2753 79.1781 90.4252C79.0029 90.575 78.7859 90.6673 78.5564 90.6897C77.8793 90.7709 78.1366 90.6897 70.7158 84.5282C70.441 84.2965 70.0855 84.1835 69.7274 84.214C69.3693 84.2445 69.038 84.4159 68.8064 84.6907C68.5747 84.9654 68.4617 85.321 68.4922 85.679C68.5227 86.0371 68.6941 86.3684 68.9689 86.6001C73.9522 90.7844 72.9501 89.9449 73.1939 90.1344C74.2501 90.974 72.9095 92.8428 71.7314 91.8407L68.5626 89.2407C68.2879 89.009 67.9324 88.896 67.5743 88.9265C67.2162 88.957 66.8849 89.1284 66.6533 89.4032C66.4216 89.6779 66.3086 90.0335 66.3391 90.3915C66.3695 90.7496 66.541 91.0809 66.8158 91.3126L68.021 92.3147C68.19 92.4577 68.313 92.6475 68.3745 92.8602C68.436 93.0729 68.4334 93.2991 68.3668 93.5103C68.3003 93.7215 68.1728 93.9083 68.0005 94.0473C67.8281 94.1864 67.6186 94.2714 67.3981 94.2917C66.8158 94.2917 66.6668 94.1022 65.3262 92.9376C65.6156 92.3215 65.7351 91.6392 65.6723 90.9614C65.6095 90.2836 65.3666 89.6349 64.9689 89.0825C64.5712 88.5301 64.033 88.094 63.4101 87.8194C62.7872 87.5449 62.1023 87.4418 61.4262 87.5209C61.2369 86.6091 60.7175 85.7993 59.9678 85.247C59.218 84.6946 58.2906 84.4387 57.3637 84.5282C57.1879 83.7916 56.7917 83.1261 56.228 82.6204C55.6643 82.1147 54.9598 81.793 54.2085 81.698C54.2267 80.9969 54.0502 80.3045 53.6984 79.6978C53.3467 79.091 52.8336 78.5937 52.2162 78.2611C51.5987 77.9286 50.9011 77.7738 50.201 77.8139C49.5008 77.8541 48.8255 78.0876 48.2501 78.4886C47.7085 77.7032 47.7491 77.5136 46.747 73.2615C46.5303 72.2594 46.0835 72.0157 44.4043 70.5532L54.5876 58.3657C57.1606 60.5324 56.0501 60.1397 61.697 60.4376C61.9408 60.4376 62.4283 59.9772 55.5897 65.7053C54.804 66.497 54.3439 67.5547 54.3003 68.6692C54.2567 69.7838 54.6328 70.8742 55.3542 71.7249C56.0756 72.5756 57.0899 73.1248 58.1966 73.2639C59.3033 73.403 60.4219 73.1219 61.3314 72.4761L64.5001 69.9844C81.197 83.9865 74.047 78.0417 80.3168 83.2688C80.4333 83.3577 80.5311 83.4687 80.6047 83.5954C80.6783 83.7222 80.7262 83.8621 80.7457 84.0074C80.7652 84.1526 80.7559 84.3003 80.7183 84.4419C80.6807 84.5835 80.6156 84.7164 80.5267 84.8329C80.4378 84.9494 80.3268 85.0472 80.2001 85.1208C80.0734 85.1944 79.9334 85.2423 79.7881 85.2618C79.6429 85.2812 79.4953 85.2719 79.3536 85.2344C79.212 85.1968 79.0791 85.1317 78.9626 85.0428H79.0168ZM81.3189 77.2563C81.1369 78.097 80.6556 78.8429 79.9647 79.3553L66.6803 68.224L67.6012 67.4386C67.8759 67.207 68.0474 66.8757 68.0779 66.5176C68.1084 66.1595 67.9953 65.804 67.7637 65.5292C67.532 65.2545 67.2007 65.083 66.8426 65.0525C66.4846 65.0221 66.1291 65.1351 65.8543 65.3667C59.0835 71.0272 59.3814 71.0272 58.4199 70.9324C57.9911 70.8893 57.593 70.6905 57.301 70.3735C57.0089 70.0566 56.8433 69.6435 56.8356 69.2126C56.8356 68.1022 56.7408 68.4678 65.272 61.3313C65.8293 60.8901 66.5013 60.6175 67.2085 60.5459C72.8689 60.248 71.7585 60.6407 74.3314 58.474L84.5147 70.6615C82.0095 72.7605 82.5647 71.6772 81.2647 77.2563H81.3189ZM87.4804 69.8084L75.6585 55.7792L79.2606 52.7594L91.0283 66.7886L87.4804 69.8084Z" fill="#171717"/>
<path d="M49.8849 51.8464L54.2819 55.8037C54.4032 55.9128 54.415 56.0988 54.3087 56.2224L41.7817 70.7826C41.677 70.9042 41.4952 70.922 41.369 70.8229L36.7437 67.1913C36.6104 67.0867 36.5902 66.8925 36.6991 66.7626L49.1673 51.8967C49.3491 51.6799 49.6745 51.6571 49.8849 51.8464Z" fill="#FF521B"/>
<path d="M78.6206 51.3327L74.2263 55.1861C74.1015 55.2956 74.0893 55.4858 74.1992 55.6103L86.7203 69.7904C86.8246 69.9085 87.0024 69.9258 87.1275 69.8301L91.7476 66.2957C91.8846 66.1909 91.9052 65.9924 91.7927 65.8617L79.3292 51.3824C79.1479 51.1718 78.8296 51.1495 78.6206 51.3327Z" fill="#FF521B"/>
<path d="M65.8529 48.25H63.1445C62.7854 48.25 62.4409 48.1073 62.187 47.8534C61.933 47.5994 61.7904 47.255 61.7904 46.8958C61.7904 46.5367 61.6477 46.1922 61.3937 45.9383C61.1398 45.6843 60.7953 45.5417 60.4362 45.5417C60.0771 45.5417 59.7326 45.6843 59.4787 45.9383C59.2247 46.1922 59.082 46.5367 59.082 46.8958C59.082 47.9733 59.51 49.0066 60.2719 49.7685C61.0338 50.5303 62.0671 50.9583 63.1445 50.9583V52.3125C63.1445 52.6716 63.2872 53.0161 63.5412 53.27C63.7951 53.524 64.1396 53.6667 64.4987 53.6667C64.8578 53.6667 65.2023 53.524 65.4562 53.27C65.7102 53.0161 65.8529 52.6716 65.8529 52.3125V50.9583C66.9303 50.9583 67.9636 50.5303 68.7255 49.7685C69.4874 49.0066 69.9154 47.9733 69.9154 46.8958V45.5417C69.9154 44.4642 69.4874 43.4309 68.7255 42.669C67.9636 41.9072 66.9303 41.4792 65.8529 41.4792H63.1445C62.7854 41.4792 62.4409 41.3365 62.187 41.0825C61.933 40.8286 61.7904 40.4841 61.7904 40.125V38.7708C61.7904 38.4117 61.933 38.0672 62.187 37.8133C62.4409 37.5593 62.7854 37.4167 63.1445 37.4167H65.8529C66.212 37.4167 66.5565 37.5593 66.8104 37.8133C67.0644 38.0672 67.207 38.4117 67.207 38.7708C67.207 39.13 67.3497 39.4744 67.6037 39.7284C67.8576 39.9823 68.2021 40.125 68.5612 40.125C68.9203 40.125 69.2648 39.9823 69.5187 39.7284C69.7727 39.4744 69.9154 39.13 69.9154 38.7708C69.9154 37.6934 69.4874 36.6601 68.7255 35.8982C67.9636 35.1363 66.9303 34.7083 65.8529 34.7083V33.3542C65.8529 32.995 65.7102 32.6506 65.4562 32.3966C65.2023 32.1427 64.8578 32 64.4987 32C64.1396 32 63.7951 32.1427 63.5412 32.3966C63.2872 32.6506 63.1445 32.995 63.1445 33.3542V34.7083C62.0671 34.7083 61.0338 35.1363 60.2719 35.8982C59.51 36.6601 59.082 37.6934 59.082 38.7708V40.125C59.082 41.2024 59.51 42.2358 60.2719 42.9976C61.0338 43.7595 62.0671 44.1875 63.1445 44.1875H65.8529C66.212 44.1875 66.5565 44.3302 66.8104 44.5841C67.0644 44.8381 67.207 45.1825 67.207 45.5417V46.8958C67.207 47.255 67.0644 47.5994 66.8104 47.8534C66.5565 48.1073 66.212 48.25 65.8529 48.25Z" fill="#171717"/>
</svg>
