<svg width="28" height="29" viewBox="0 0 28 29" fill="none" xmlns="http://www.w3.org/2000/svg">
<path d="M13.9997 27.0416C7.08134 27.0416 1.45801 21.4183 1.45801 14.4999C1.45801 7.58159 7.08134 1.95825 13.9997 1.95825C20.918 1.95825 26.5413 7.58159 26.5413 14.4999C26.5413 21.4183 20.918 27.0416 13.9997 27.0416ZM13.9997 3.70825C8.04967 3.70825 3.20801 8.54992 3.20801 14.4999C3.20801 20.4499 8.04967 25.2916 13.9997 25.2916C19.9497 25.2916 24.7913 20.4499 24.7913 14.4999C24.7913 8.54992 19.9497 3.70825 13.9997 3.70825Z" fill="#292D32"/>
<path d="M18.3284 19.0851C18.1767 19.0851 18.0251 19.0501 17.8851 18.9567L14.2684 16.7984C13.3701 16.2617 12.7051 15.0834 12.7051 14.0451V9.26172C12.7051 8.78339 13.1017 8.38672 13.5801 8.38672C14.0584 8.38672 14.4551 8.78339 14.4551 9.26172V14.0451C14.4551 14.4651 14.8051 15.0834 15.1667 15.2934L18.7834 17.4517C19.2034 17.6967 19.3317 18.2334 19.0867 18.6534C18.9117 18.9334 18.6201 19.0851 18.3284 19.0851Z" fill="#292D32"/>
</svg>
