<svg width="50" height="50" viewBox="0 0 50 50" fill="none" xmlns="http://www.w3.org/2000/svg">
<path d="M0 12C0 6.34315 0 3.51472 1.75736 1.75736C3.51472 0 6.34315 0 12 0H38C43.6569 0 46.4853 0 48.2426 1.75736C50 3.51472 50 6.34315 50 12V38C50 43.6569 50 46.4853 48.2426 48.2426C46.4853 50 43.6569 50 38 50H12C6.34315 50 3.51472 50 1.75736 48.2426C0 46.4853 0 43.6569 0 38V12Z" fill="white"/>
<path d="M39 17.1933C37.9467 17.6527 36.8328 17.958 35.6925 18.0998C36.8942 17.3869 37.7927 16.258 38.2178 14.927C37.0925 15.5944 35.8614 16.0643 34.5777 16.3165C33.7907 15.4762 32.7691 14.8919 31.6456 14.6397C30.5222 14.3875 29.3488 14.4789 28.2781 14.9022C27.2073 15.3255 26.2886 16.0611 25.6412 17.0133C24.9939 17.9655 24.6479 19.0904 24.6482 20.2418C24.6482 20.6968 24.6868 21.1343 24.7812 21.5508C22.4976 21.4388 20.2634 20.8462 18.2245 19.8115C16.1857 18.7768 14.3882 17.3235 12.9495 15.5465C12.2124 16.8098 11.9846 18.3065 12.3123 19.7318C12.64 21.1572 13.4987 22.4041 14.7135 23.2185C13.8048 23.1942 12.9153 22.9517 12.12 22.5115V22.5745C12.1215 23.9 12.5797 25.1846 13.4173 26.2118C14.2549 27.2391 15.4209 27.9465 16.719 28.2148C16.2279 28.3442 15.7218 28.4078 15.214 28.4038C14.8493 28.4103 14.4849 28.3774 14.1272 28.3058C14.4981 29.4451 15.2131 30.4414 16.1737 31.1575C17.1343 31.8736 18.2932 32.2744 19.491 32.3045C17.4591 33.8936 14.9532 34.7556 12.3738 34.7528C11.903 34.7528 11.4515 34.7318 11 34.674C13.6248 36.3655 16.6834 37.2602 19.806 37.25C30.369 37.25 36.144 28.5 36.144 20.9155C36.144 20.6618 36.1353 20.4168 36.123 20.1735C37.2552 19.3633 38.2301 18.3533 39 17.1933Z" fill="#171717"/>
</svg>
