<svg width="130" height="130" viewBox="0 0 130 130" fill="none" xmlns="http://www.w3.org/2000/svg">
<path d="M127.5 65C127.5 99.5178 99.5178 127.5 65 127.5C30.4822 127.5 2.5 99.5178 2.5 65C2.5 30.4822 30.4822 2.5 65 2.5C99.5178 2.5 127.5 30.4822 127.5 65Z" fill="#D9D9D9" stroke="#FF521B" stroke-width="5"/>
<circle cx="65" cy="65" r="60" fill="white"/>
<path d="M82 71.5C82 68.4624 84.4624 66 87.5 66H93V77H87.5C84.4624 77 82 74.5376 82 71.5V71.5Z" stroke="black"/>
<path fill-rule="evenodd" clip-rule="evenodd" d="M95.6471 86.1663C95.6471 87.9621 94.9338 89.6842 93.664 90.954C92.3942 92.2238 90.672 92.9371 88.8763 92.9371H40.1263C39.2371 92.9371 38.3567 92.762 37.5352 92.4217C36.7137 92.0815 35.9673 91.5827 35.3386 90.954C34.0688 89.6842 33.3555 87.9621 33.3555 86.1663V46.8955C33.3555 45.4589 33.9262 44.0811 34.942 43.0653C35.9578 42.0495 37.3355 41.4788 38.7721 41.4788H66.087L77.0544 37.5057C77.3879 37.3843 77.756 37.4001 78.0778 37.5496C78.3997 37.6991 78.6492 37.9701 78.7715 38.3033L79.9266 41.4788H84.8138C86.2504 41.4788 87.6281 42.0495 88.644 43.0653C89.6598 44.0811 90.2305 45.4589 90.2305 46.8955V49.6038C91.6671 49.6038 93.0448 50.1745 94.0606 51.1903C95.0765 52.2061 95.6471 53.5839 95.6471 55.0205V86.1663ZM38.7721 44.1872C38.0538 44.1872 37.365 44.4725 36.8571 44.9804C36.3491 45.4883 36.0638 46.1772 36.0638 46.8955C36.0638 47.6138 36.3491 48.3027 36.8571 48.8106C37.365 49.3185 38.0538 49.6038 38.7721 49.6038H43.6932C43.7108 49.597 43.7216 49.5822 43.7392 49.5754L58.6107 44.1872H38.7721ZM78.1486 44.4323L76.7105 40.4727H76.7091L73.9317 41.4788H73.9358L66.4689 44.1872H66.4554L51.5067 49.6038H80.0282L78.1486 44.4323V44.4323ZM87.5221 46.8955C87.5221 46.1772 87.2368 45.4883 86.7289 44.9804C86.221 44.4725 85.5321 44.1872 84.8138 44.1872H80.9097L82.8787 49.6038H87.5221V46.8955ZM90.2305 52.3122H38.7721C37.7809 52.3122 36.8628 52.0264 36.0638 51.5606V86.1663C36.0638 87.2438 36.4918 88.2771 37.2537 89.0389C38.0155 89.8008 39.0489 90.2288 40.1263 90.2288H88.8763C89.9537 90.2288 90.9871 89.8008 91.7489 89.0389C92.5108 88.2771 92.9388 87.2438 92.9388 86.1663V76.6872H87.5221C86.0855 76.6872 84.7078 76.1165 83.692 75.1006C82.6762 74.0848 82.1055 72.7071 82.1055 71.2705C82.1055 69.8339 82.6762 68.4561 83.692 67.4403C84.7078 66.4245 86.0855 65.8538 87.5221 65.8538H92.9388V55.0205C92.9388 54.3022 92.6535 53.6133 92.1456 53.1054C91.6376 52.5975 90.9488 52.3122 90.2305 52.3122ZM92.9388 73.9788V68.5622H87.5221C86.8038 68.5622 86.115 68.8475 85.6071 69.3554C85.0991 69.8633 84.8138 70.5522 84.8138 71.2705C84.8138 71.9888 85.0991 72.6777 85.6071 73.1856C86.115 73.6935 86.8038 73.9788 87.5221 73.9788H92.9388ZM87.5221 69.9163H90.2305V72.6247H87.5221V69.9163Z" fill="#171717"/>
<circle cx="87.5" cy="71.5" r="5.5" fill="#FF521B" stroke="black" stroke-width="2"/>
<path d="M76.7201 40.1004L52.1246 48.9176C51.8079 49.0311 51.8894 49.5 52.2258 49.5H80.0698C80.2785 49.5 80.4234 49.2921 80.3513 49.0963L77.1028 40.279C77.0459 40.1245 76.8751 40.0448 76.7201 40.1004Z" fill="#FF521B" stroke="black" stroke-width="0.5"/>
</svg>
