<svg width="50" height="50" viewBox="0 0 50 50" fill="none" xmlns="http://www.w3.org/2000/svg">
<path d="M0 12C0 6.34315 0 3.51472 1.75736 1.75736C3.51472 0 6.34315 0 12 0H38C43.6569 0 46.4853 0 48.2426 1.75736C50 3.51472 50 6.34315 50 12V38C50 43.6569 50 46.4853 48.2426 48.2426C46.4853 50 43.6569 50 38 50H12C6.34315 50 3.51472 50 1.75736 48.2426C0 46.4853 0 43.6569 0 38V12Z" fill="white"/>
<path d="M37.8332 22.3283C37.8909 20.6584 37.5257 19.001 36.7715 17.51C36.2598 16.8982 35.5497 16.4853 34.7649 16.3433C31.5186 16.0488 28.259 15.928 24.9999 15.9816C21.7526 15.9256 18.5047 16.0424 15.2699 16.3316C14.6303 16.448 14.0385 16.748 13.5665 17.195C12.5165 18.1633 12.3999 19.82 12.2832 21.22C12.1139 23.7371 12.1139 26.2628 12.2832 28.78C12.317 29.568 12.4343 30.3501 12.6332 31.1133C12.7739 31.7026 13.0585 32.2477 13.4615 32.7C13.9367 33.1707 14.5423 33.4877 15.1999 33.61C17.7151 33.9205 20.2495 34.0491 22.7832 33.995C26.8665 34.0533 30.4482 33.995 34.6832 33.6683C35.3569 33.5536 35.9796 33.2361 36.4682 32.7583C36.7948 32.4316 37.0388 32.0316 37.1799 31.5917C37.5971 30.3114 37.802 28.9714 37.7865 27.625C37.8332 26.9716 37.8332 23.0283 37.8332 22.3283ZM22.3632 28.325V21.1033L29.2699 24.7317C27.3332 25.805 24.7782 27.0183 22.3632 28.325Z" fill="#171717"/>
</svg>
